<svg width="21" height="21" viewBox="0 0 21 21" fill="none" xmlns="http://www.w3.org/2000/svg">
<g opacity="0.4">
<path d="M20.9808 0.343875C20.9755 0.32025 20.9755 0.294861 20.9659 0.272139C20.9212 0.163652 20.8355 0.0778887 20.727 0.0332637C20.7042 0.023625 20.6798 0.0245273 20.6553 0.018375C20.6255 0.0122637 20.5958 0 20.5625 0H6.5625C6.53711 0 6.51439 0.0105 6.48986 0.0148887C6.45836 0.0201387 6.426 0.021 6.39622 0.0332637C6.34196 0.0560273 6.29385 0.0875273 6.25271 0.128625L0.127764 6.25361C0.124277 6.2571 0.123375 6.26235 0.119027 6.26588C0.084041 6.30349 0.0534023 6.34639 0.0332637 6.3945C0.0113613 6.44963 0 6.50651 0 6.56426V20.5625C0 20.804 0.196014 21 0.437514 21H14.4375C14.4944 21 14.5512 20.9886 14.6046 20.9659C14.6537 20.9457 14.6957 20.9151 14.7341 20.8801C14.7376 20.8766 14.7429 20.8757 14.7464 20.8722L20.8714 14.7472C20.9116 14.707 20.944 14.658 20.9659 14.6046C20.9781 14.574 20.9799 14.5425 20.9851 14.5101C20.9895 14.4857 21 14.4629 21 14.4375V0.437514C21 0.40425 20.9877 0.374514 20.9808 0.343875ZM14 20.125H0.874986V7.00001H14V20.125ZM14.2564 6.12499H1.49363L6.74363 0.874986H19.5064L14.2564 6.12499ZM20.125 14.2564L14.875 19.5064V6.74363L20.125 1.49363V14.2564Z" fill="#191919"/>
</g>
</svg>
