<svg width="24" height="24" viewBox="0 0 24 24" fill="none" xmlns="http://www.w3.org/2000/svg">
<g >
<path d="M22.0398 14.3416L20.0764 12.8063C20.1023 12.5696 20.1227 12.2928 20.1227 12C20.1227 11.7072 20.1013 11.4304 20.0764 11.1937L22.0415 9.65755C22.4065 9.36919 22.507 8.85743 22.2738 8.43115L20.2322 4.89876C20.0088 4.49205 19.5077 4.30603 19.0512 4.47424L16.7345 5.40427C16.2913 5.08387 15.8258 4.81332 15.3443 4.59706L14.9919 2.1398C14.9341 1.67251 14.5282 1.32007 14.0485 1.32007H9.95453C9.47481 1.32007 9.06898 1.67251 9.01203 2.13087L8.65872 4.59706C8.19234 4.80798 7.73403 5.07411 7.27032 5.40518L4.94744 4.47248C4.50335 4.29894 3.9978 4.48229 3.77532 4.88988L1.73099 8.42761C1.48981 8.83524 1.5886 9.36389 1.9624 9.65934L3.92571 11.1937C3.89455 11.4945 3.87945 11.7553 3.87945 12C3.87945 12.2448 3.89459 12.5055 3.92396 12.8064L1.95885 14.3434C1.59482 14.6317 1.49511 15.1434 1.7274 15.5698L3.76906 19.1022C3.99067 19.508 4.49083 19.6931 4.95007 19.5267L7.26674 18.5967C7.70995 18.9162 8.17633 19.1867 8.6578 19.4039L9.01024 21.8603C9.0681 22.3275 9.47394 22.6799 9.95362 22.6799H14.0476C14.5273 22.6799 14.9331 22.3275 14.9901 21.8691L15.3434 19.4039C15.8098 19.1929 16.2681 18.9268 16.7318 18.5957L19.0547 19.5284C19.497 19.7002 20.0043 19.5186 20.2268 19.111L22.2791 15.5608C22.5061 15.1444 22.4064 14.6326 22.0398 14.3416ZM21.5013 15.1248L19.3813 18.7007L16.8333 17.6773C16.6891 17.6194 16.5254 17.6417 16.4008 17.7342C15.8489 18.1472 15.3159 18.4578 14.7694 18.6812C14.6234 18.7408 14.5193 18.8734 14.4971 19.0301L14.0476 21.79L9.894 21.7428L9.50506 19.0309C9.4819 18.8743 9.37869 18.7417 9.23272 18.6821C8.66401 18.4489 8.11667 18.1312 7.60491 17.7378C7.52568 17.6763 7.42956 17.6452 7.33344 17.6452C7.27738 17.6452 7.22131 17.655 7.16703 17.6772L4.54598 18.666L2.50432 15.1336C2.48563 15.0989 2.48918 15.0588 2.51054 15.0419L4.67055 13.3536C4.79337 13.2575 4.85745 13.1027 4.83789 12.9478C4.7907 12.5749 4.76934 12.2732 4.76934 12C4.76934 11.7267 4.79158 11.4259 4.83789 11.0521C4.85745 10.8964 4.79337 10.7424 4.67055 10.6463L2.49994 8.87612L4.61991 5.30014L7.16795 6.32362C7.313 6.38236 7.47587 6.36012 7.60136 6.26667C8.15225 5.85282 8.68625 5.54311 9.23272 5.3197C9.37869 5.25917 9.48191 5.12659 9.50418 4.97081L9.95453 2.21005L14.109 2.25811L14.4971 4.97081C14.5202 5.12746 14.6234 5.26005 14.7694 5.3197C15.3372 5.55199 15.8846 5.86972 16.3972 6.264C16.5227 6.36012 16.6874 6.38327 16.8342 6.32362L19.4553 5.33485L21.4969 8.86724C21.5156 8.90195 21.5121 8.94112 21.4907 8.95801L19.3307 10.6463C19.2079 10.7424 19.1438 10.8964 19.1633 11.0522C19.1972 11.3227 19.2319 11.6476 19.2319 12C19.2319 12.3533 19.1972 12.6773 19.1633 12.9478C19.1438 13.1027 19.2079 13.2576 19.3307 13.3537L21.488 15.0411C21.5111 15.0598 21.5156 15.0999 21.5013 15.1248Z" fill="#191919"/>
<path d="M12.0008 7.55002C9.54706 7.55002 7.55078 9.54629 7.55078 12C7.55078 14.4537 9.54706 16.45 12.0008 16.45C14.4545 16.45 16.4508 14.4537 16.4508 12C16.4508 9.54629 14.4545 7.55002 12.0008 7.55002ZM12.0008 15.56C10.0375 15.56 8.4408 13.9633 8.4408 12C8.4408 10.0367 10.0375 8.44004 12.0008 8.44004C13.9641 8.44004 15.5607 10.0367 15.5607 12C15.5607 13.9633 13.9641 15.56 12.0008 15.56Z" fill="#191919"/>
</g>
</svg>
