<svg width="61" height="61" viewBox="0 0 61 61" fill="none" xmlns="http://www.w3.org/2000/svg">
<g clip-path="url(#clip0)">
<path d="M27.0134 0.195173C13.2555 1.72994 2.08164 12.6532 0.272255 26.3775C-2.29141 45.826 13.6086 62.3718 32.8678 60.9103C39.9524 60.3726 46.5838 57.2067 51.7797 52.3609L52.226 51.9448C52.7394 51.4661 52.7674 50.6619 52.2887 50.1487L50.5546 48.2893C50.0759 47.7759 49.2718 47.7479 48.7584 48.2266L47.8288 49.0936C42.0493 54.4825 34.1152 56.9071 26.1114 55.544C14.7674 53.612 6.04676 43.9811 5.16095 32.5079C3.98968 17.3362 16.2278 4.65782 31.2535 5.09447C45.1081 5.49729 55.9166 17.3202 55.9166 31.1807V33.0419C55.9166 36.0125 53.3568 38.3951 50.3264 38.1006C47.6856 37.8437 45.75 35.4701 45.75 32.8166V21.6045C45.75 20.9025 45.181 20.3336 44.4791 20.3336H41.9375C41.4272 20.3336 40.9938 20.6386 40.7916 21.0727C38.2343 18.2832 34.5737 16.5211 30.5 16.5211C22.7919 16.5211 16.5209 22.7921 16.5209 30.5003C16.5209 38.2084 22.7919 44.4795 30.5 44.4795C35.3556 44.4795 39.637 41.9884 42.1439 38.2199C44.0313 41.3741 47.5381 43.4527 51.5298 43.1853C56.9272 42.8237 61 38.0925 61 32.683V30.5003C61 12.5341 45.3844 -1.85428 27.0134 0.195173ZM30.5 39.3961C25.5954 39.3961 21.6041 35.4049 21.6041 30.5003C21.6041 25.5956 25.5954 21.6044 30.5 21.6044C35.4047 21.6044 39.3959 25.5956 39.3959 30.5003C39.3959 35.4049 35.4047 39.3961 30.5 39.3961Z" fill="black"/>
</g>
<defs>
<clipPath id="clip0">
<rect width="61" height="61" fill="white"/>
</clipPath>
</defs>
</svg>
