<svg width="61" height="61" viewBox="0 0 61 61" fill="none" xmlns="http://www.w3.org/2000/svg">
<g clip-path="url(#clip0)">
<path d="M59.2437 36.9727C63.6611 17.1223 46.271 -0.910788 25.8488 2.55096C14.762 -4.32933 0 3.44563 0 16.6369C0 19.7047 0.846375 22.5767 2.318 25.0523C-1.78679 44.9485 15.7456 62.7224 36.1501 59.0242C50.5741 66.6518 66.5129 51.4399 59.2437 36.9727ZM39.8305 48.944C34.4726 51.1476 25.6556 51.1603 20.3206 48.367C12.7134 44.3105 11.3613 35.1783 17.9238 35.1783C22.8699 35.1783 21.3043 40.9454 26.2986 43.2964C28.5912 44.3563 33.5195 44.4656 36.384 42.5339C39.2128 40.6404 38.9536 37.6615 37.4159 36.2382C33.3416 32.4765 21.683 33.971 16.3531 27.3856C14.0376 24.5287 13.6005 19.4886 16.4471 15.8337C21.4085 9.44904 35.9671 9.06017 42.2273 13.8817C48.007 18.355 46.4464 24.2924 41.7825 24.2924C36.173 24.2924 39.1213 16.952 30.0654 16.952C23.5003 16.952 20.9179 21.6211 25.5412 23.8933C31.809 27.0069 47.7808 25.9673 47.7808 38.1343C47.7681 43.1973 44.6647 46.9717 39.8305 48.944Z" fill="black"/>
</g>
<defs>
<clipPath id="clip0">
<rect width="61" height="61" fill="white"/>
</clipPath>
</defs>
</svg>
