<svg width="61" height="61" viewBox="0 0 61 61" fill="none" xmlns="http://www.w3.org/2000/svg">
<path d="M50.689 10.2514C45.2886 4.85068 38.1077 1.87646 30.4702 1.87646C22.8328 1.87646 15.6519 4.85068 10.2514 10.2514C4.85068 15.6519 1.87646 22.8328 1.87646 30.4702C1.87646 38.1077 4.85068 45.2886 10.2514 50.689C15.6519 56.0898 22.8328 59.064 30.4702 59.064C30.7006 59.064 30.9344 59.0612 31.1655 59.0556C32.0912 59.0329 32.8228 58.265 32.8001 57.34C32.7778 56.4151 32.0109 55.6845 31.0849 55.7058C30.8803 55.7103 30.6734 55.7131 30.4702 55.7131C16.551 55.7131 5.22729 44.3894 5.22729 30.4702C5.22729 16.551 16.551 5.22729 30.4702 5.22729C44.3894 5.22729 55.7131 16.551 55.7131 30.4702C55.7131 35.5516 54.2032 40.4585 51.3466 44.661C50.7895 45.4809 50.0419 45.949 49.0617 46.0928C48.0809 46.2366 47.2306 46.0024 46.4617 45.3776L45.1343 44.2987C45.2928 44.1709 45.4491 44.0397 45.6027 43.9036C46.5874 43.0292 47.0774 41.8243 46.9821 40.5105C46.8865 39.1967 46.2282 38.0752 45.1273 37.3516L39.8208 33.8643C38.3223 32.8793 36.3768 32.9655 34.9792 34.0776C34.1931 34.7027 33.1076 34.6413 32.3973 33.9313L27.0091 28.5428C26.2991 27.8328 26.2377 26.7473 26.8628 25.9613C27.9749 24.5637 28.0611 22.6181 27.0761 21.1197L23.5888 15.8131C22.8652 14.7122 21.7437 14.0532 20.4299 13.9583C19.1158 13.8627 17.9112 14.3531 17.0369 15.3377C12.7241 20.1943 12.945 27.5976 17.5395 32.1917L28.7487 43.4009C31.139 45.7915 34.2895 46.9982 37.4469 46.9978C39.0092 46.9978 40.5719 46.6994 42.0459 46.1057L44.3475 47.9776C45.8425 49.193 47.6411 49.6879 49.5476 49.4087C51.4544 49.1288 53.0346 48.1389 54.118 46.5451C57.3536 41.7845 59.064 36.226 59.064 30.4702C59.064 22.8328 56.0898 15.6519 50.689 10.2514Z" fill="black"/>
</svg>
