<svg width="21" height="21" viewBox="0 0 21 21" fill="none" xmlns="http://www.w3.org/2000/svg">
<path d="M17.3795 2.57945C17.3795 1.97959 16.8932 1.49323 16.2933 1.49323H15.2071C15.2071 0.893372 14.7207 0.407013 14.1209 0.407013C13.521 0.407013 13.0346 0.893372 13.0346 1.49323H11.5863C11.5863 0.893372 11.1 0.407013 10.5001 0.407013C9.90026 0.407013 9.4139 0.893372 9.4139 1.49323H7.96561C7.96561 0.893372 7.47925 0.407013 6.87939 0.407013C6.27953 0.407013 5.79317 0.893372 5.79317 1.49323H4.34488C4.34488 0.893372 3.85852 0.407013 3.25866 0.407013C2.6588 0.407013 2.17244 0.893372 2.17244 1.49323H1.08622C0.486359 1.49323 0 1.97959 0 2.57945V17.7865C0 17.9865 0.16212 18.1486 0.362073 18.1486H1.44829V19.2348C1.44829 19.4348 1.61041 19.5969 1.81037 19.5969H11.3448C11.3496 19.5969 11.3532 19.5944 11.3576 19.5944C13.2752 20.917 15.7756 21.0427 17.8164 19.9188C19.8571 18.7951 21.0876 16.6147 20.9951 14.2871C20.9027 11.9592 19.503 9.88351 17.3795 8.92511V2.57945ZM13.7588 1.49323C13.7588 1.29328 13.9209 1.13116 14.1209 1.13116C14.3208 1.13116 14.4829 1.29328 14.4829 1.49323V2.57945H13.7588V1.49323ZM10.138 1.49323C10.138 1.29328 10.3002 1.13116 10.5001 1.13116C10.7001 1.13116 10.8622 1.29328 10.8622 1.49323V2.57945H10.138V1.49323ZM6.51732 1.49323C6.51732 1.29328 6.67944 1.13116 6.87939 1.13116C7.07934 1.13116 7.24146 1.29328 7.24146 1.49323V2.57945H6.51732V1.49323ZM2.89659 1.49323C2.89659 1.29328 3.0587 1.13116 3.25866 1.13116C3.45861 1.13116 3.62073 1.29328 3.62073 1.49323V2.57945H2.89659V1.49323ZM0.724146 2.57945C0.724146 2.3795 0.886266 2.21738 1.08622 2.21738H2.17244V2.94153C2.17244 3.14148 2.33456 3.3036 2.53451 3.3036H3.9828C4.18276 3.3036 4.34488 3.14148 4.34488 2.94153V2.21738H5.79317V2.94153C5.79317 3.14148 5.95529 3.3036 6.15524 3.3036H7.60354C7.80349 3.3036 7.96561 3.14148 7.96561 2.94153V2.21738H9.4139V2.94153C9.4139 3.14148 9.57602 3.3036 9.77598 3.3036H11.2243C11.4242 3.3036 11.5863 3.14148 11.5863 2.94153V2.21738H13.0346V2.94153C13.0346 3.14148 13.1968 3.3036 13.3967 3.3036H14.845C15.045 3.3036 15.2071 3.14148 15.2071 2.94153V2.21738H16.2933C16.4932 2.21738 16.6554 2.3795 16.6554 2.57945V4.38982H0.724146V2.57945ZM2.17244 18.1486H9.87852C10.0633 18.4053 10.2676 18.6473 10.4897 18.8728H2.17244V18.1486ZM20.2761 14.5279C20.2761 17.5274 17.8445 19.959 14.845 19.959C11.8455 19.959 9.4139 17.5274 9.4139 14.5279C9.4139 11.5284 11.8455 9.09677 14.845 9.09677C17.8431 9.10013 20.2727 11.5298 20.2761 14.5279ZM14.845 8.37263C12.6823 8.37121 10.6778 9.50552 9.56559 11.3603C8.45338 13.2148 8.39681 15.5176 9.41673 17.4245H0.724146V5.11397H16.6554V8.64524C16.0689 8.46438 15.4586 8.37245 14.845 8.37263Z" fill="#191919"/>
<path d="M3.2581 6.56227C2.65823 6.56227 2.17188 7.04863 2.17188 7.64849C2.17188 8.24835 2.65823 8.73471 3.2581 8.73471C3.85796 8.73471 4.34432 8.24835 4.34432 7.64849C4.34432 7.04863 3.85796 6.56227 3.2581 6.56227ZM3.2581 8.01057C3.05814 8.01057 2.89602 7.84845 2.89602 7.64849C2.89602 7.44854 3.05814 7.28642 3.2581 7.28642C3.45805 7.28642 3.62017 7.44854 3.62017 7.64849C3.62017 7.84845 3.45805 8.01057 3.2581 8.01057Z" fill="#191919"/>
<path d="M6.87919 6.56227C6.27933 6.56227 5.79297 7.04863 5.79297 7.64849C5.79297 8.24835 6.27933 8.73471 6.87919 8.73471C7.47905 8.73471 7.96541 8.24835 7.96541 7.64849C7.96541 7.04863 7.47905 6.56227 6.87919 6.56227ZM6.87919 8.01057C6.67924 8.01057 6.51712 7.84845 6.51712 7.64849C6.51712 7.44854 6.67924 7.28642 6.87919 7.28642C7.07914 7.28642 7.24126 7.44854 7.24126 7.64849C7.24126 7.84845 7.07914 8.01057 6.87919 8.01057Z" fill="#191919"/>
<path d="M10.5003 6.56227C9.90042 6.56227 9.41406 7.04863 9.41406 7.64849C9.41406 8.24835 9.90042 8.73471 10.5003 8.73471C11.1001 8.73471 11.5865 8.24835 11.5865 7.64849C11.5865 7.04863 11.1001 6.56227 10.5003 6.56227ZM10.5003 8.01057C10.3003 8.01057 10.1382 7.84845 10.1382 7.64849C10.1382 7.44854 10.3003 7.28642 10.5003 7.28642C10.7002 7.28642 10.8624 7.44854 10.8624 7.64849C10.8624 7.84845 10.7002 8.01057 10.5003 8.01057Z" fill="#191919"/>
<path d="M3.2581 9.45886C2.65823 9.45886 2.17188 9.94523 2.17188 10.5451C2.17188 11.145 2.65823 11.6313 3.2581 11.6313C3.85796 11.6313 4.34432 11.145 4.34432 10.5451C4.34432 9.94523 3.85796 9.45886 3.2581 9.45886ZM3.2581 10.9072C3.05814 10.9072 2.89602 10.745 2.89602 10.5451C2.89602 10.3451 3.05814 10.183 3.2581 10.183C3.45805 10.183 3.62017 10.3451 3.62017 10.5451C3.62017 10.745 3.45805 10.9072 3.2581 10.9072Z" fill="#191919"/>
<path d="M6.87919 9.45886C6.27933 9.45886 5.79297 9.94523 5.79297 10.5451C5.79297 11.145 6.27933 11.6313 6.87919 11.6313C7.47905 11.6313 7.96541 11.145 7.96541 10.5451C7.96541 9.94523 7.47905 9.45886 6.87919 9.45886ZM6.87919 10.9072C6.67924 10.9072 6.51712 10.745 6.51712 10.5451C6.51712 10.3451 6.67924 10.183 6.87919 10.183C7.07914 10.183 7.24126 10.3451 7.24126 10.5451C7.24126 10.745 7.07914 10.9072 6.87919 10.9072Z" fill="#191919"/>
<path d="M3.2581 12.3555C2.65823 12.3555 2.17188 12.8418 2.17188 13.4417C2.17188 14.0415 2.65823 14.5279 3.2581 14.5279C3.85796 14.5279 4.34432 14.0415 4.34432 13.4417C4.34432 12.8418 3.85796 12.3555 3.2581 12.3555ZM3.2581 13.8037C3.05814 13.8037 2.89602 13.6416 2.89602 13.4417C2.89602 13.2417 3.05814 13.0796 3.2581 13.0796C3.45805 13.0796 3.62017 13.2417 3.62017 13.4417C3.62017 13.6416 3.45805 13.8037 3.2581 13.8037Z" fill="#191919"/>
<path d="M6.87919 12.3555C6.27933 12.3555 5.79297 12.8418 5.79297 13.4417C5.79297 14.0415 6.27933 14.5279 6.87919 14.5279C7.47905 14.5279 7.96541 14.0415 7.96541 13.4417C7.96541 12.8418 7.47905 12.3555 6.87919 12.3555ZM6.87919 13.8037C6.67924 13.8037 6.51712 13.6416 6.51712 13.4417C6.51712 13.2417 6.67924 13.0796 6.87919 13.0796C7.07914 13.0796 7.24126 13.2417 7.24126 13.4417C7.24126 13.6416 7.07914 13.8037 6.87919 13.8037Z" fill="#191919"/>
<path d="M10.1377 14.5279C10.1377 17.1275 12.2451 19.2349 14.8447 19.2349C17.4442 19.2349 19.5516 17.1275 19.5516 14.5279C19.5516 11.9283 17.4442 9.82094 14.8447 9.82094C12.2463 9.82394 10.1407 11.9296 10.1377 14.5279ZM18.8275 14.5279H18.1033C17.9034 14.5279 17.7412 14.69 17.7412 14.89C17.7412 15.0899 17.9034 15.252 18.1033 15.252H18.7583C18.4318 17.0046 16.9817 18.3275 15.2067 18.4923V17.7866C15.2067 17.5866 15.0446 17.4245 14.8447 17.4245C14.6447 17.4245 14.4826 17.5866 14.4826 17.7866V18.4923C12.7076 18.3275 11.2575 17.0046 10.931 15.252H11.586C11.7859 15.252 11.9481 15.0899 11.9481 14.89C11.9481 14.69 11.7859 14.5279 11.586 14.5279H10.8618C10.8645 12.47 12.4334 10.7523 14.4826 10.5636V11.2692C14.4826 11.4692 14.6447 11.6313 14.8447 11.6313C15.0446 11.6313 15.2067 11.4692 15.2067 11.2692V10.5636C17.2559 10.7523 18.8248 12.47 18.8275 14.5279Z" fill="#191919"/>
<path d="M14.9229 14.3541L14.4222 13.6029C14.3112 13.4365 14.0863 13.3916 13.92 13.5025C13.7536 13.6135 13.7087 13.8384 13.8197 14.0048L14.5439 15.091C14.601 15.1762 14.6915 15.2333 14.793 15.2481C14.8103 15.2508 14.8276 15.2522 14.8451 15.252C14.9298 15.2522 15.0118 15.2225 15.0769 15.1684L17.2493 13.358C17.4032 13.23 17.424 13.0016 17.296 12.848C17.168 12.6942 16.9396 12.6731 16.7858 12.8011L14.9229 14.3541Z" fill="#191919"/>
</svg>
