<svg width="89" height="40" viewBox="0 0 89 40" fill="none" xmlns="http://www.w3.org/2000/svg">
<path d="M31.291 24.0709V15.9291H35.129C35.5778 15.9291 35.9646 15.9908 36.3051 16.1295C36.6456 16.2683 36.9396 16.4534 37.1717 16.7001C37.4039 16.9468 37.5741 17.2244 37.6979 17.5328C37.8217 17.8566 37.8681 18.1804 37.8681 18.5505C37.8681 18.9052 37.8062 19.2444 37.6824 19.5682C37.5586 19.8921 37.3884 20.1696 37.1408 20.4009C36.9087 20.6322 36.6146 20.8327 36.2742 20.9715C35.9337 21.1103 35.5468 21.1874 35.098 21.1874H33.0088V24.0864H31.291V24.0709ZM34.8813 19.6453C35.2218 19.6453 35.5158 19.5528 35.7325 19.3524C35.9646 19.1519 36.073 18.8898 36.073 18.5505C36.073 18.2113 35.9646 17.9337 35.7325 17.7487C35.5004 17.5482 35.2218 17.4557 34.8813 17.4557H33.0243V19.6453H34.8813Z" fill="#191919"/>
<path d="M43.5629 24.0709L41.9534 21.1719H40.6844V24.0709H38.9512V15.9291H42.7736C43.1915 15.9291 43.5784 15.9908 43.9188 16.1295C44.2593 16.2529 44.5533 16.4379 44.7854 16.6847C45.0176 16.916 45.2033 17.1935 45.3271 17.5174C45.4509 17.8412 45.5128 18.1804 45.5128 18.5659C45.5128 18.9206 45.4664 19.2444 45.358 19.522C45.2497 19.7995 45.1104 20.0308 44.9402 20.2313C44.77 20.4318 44.5688 20.586 44.3676 20.7248C44.151 20.8481 43.9343 20.9406 43.7176 20.9869L45.5592 24.0864H43.5629V24.0709ZM42.4951 19.6453C42.851 19.6453 43.145 19.5528 43.3772 19.3524C43.6093 19.1519 43.7331 18.8898 43.7331 18.5505C43.7331 18.2113 43.6093 17.9337 43.3772 17.7487C43.145 17.5636 42.851 17.4557 42.4951 17.4557H40.669V19.6453H42.4951Z" fill="#191919"/>
<path d="M50.6825 24.2097C50.0635 24.2097 49.5064 24.1018 48.9802 23.9013C48.4541 23.7009 48.0053 23.4079 47.6339 23.0224C47.247 22.6523 46.9529 22.2051 46.7517 21.6808C46.5351 21.1565 46.4268 20.6014 46.4268 19.9846C46.4268 19.3678 46.5351 18.8126 46.7517 18.2884C46.9684 17.7641 47.2624 17.3323 47.6339 16.9468C48.0207 16.5767 48.4695 16.2837 48.9802 16.0678C49.5064 15.8674 50.0635 15.7594 50.6825 15.7594C51.3016 15.7594 51.8742 15.8674 52.4003 16.0678C52.9265 16.2683 53.3753 16.5613 53.7467 16.9468C54.1336 17.3169 54.4276 17.7641 54.6288 18.2884C54.8455 18.8126 54.9538 19.3678 54.9538 19.9846C54.9538 20.6014 54.8455 21.1565 54.6288 21.6808C54.4122 22.2051 54.1181 22.6369 53.7467 23.0224C53.3598 23.3924 52.911 23.6854 52.4003 23.9013C51.8742 24.1018 51.3016 24.2097 50.6825 24.2097ZM50.6825 22.6677C51.054 22.6677 51.3944 22.606 51.7039 22.4672C52.0134 22.3285 52.2765 22.1434 52.4932 21.9121C52.7098 21.6808 52.8801 21.3878 52.9884 21.064C53.1122 20.7402 53.1586 20.3855 53.1586 20C53.1586 19.6145 53.0967 19.2598 52.9884 18.936C52.8646 18.6122 52.7098 18.3346 52.4932 18.0879C52.2765 17.8412 52.0134 17.6561 51.7039 17.5328C51.3944 17.394 51.054 17.3323 50.6825 17.3323C50.3111 17.3323 49.9707 17.394 49.6612 17.5328C49.3516 17.6716 49.0886 17.8566 48.8874 18.0879C48.6707 18.3346 48.516 18.6122 48.3922 18.936C48.2684 19.2598 48.2219 19.6145 48.2219 20C48.2219 20.3855 48.2838 20.7402 48.3922 21.064C48.516 21.3878 48.6707 21.6654 48.8874 21.9121C49.104 22.1434 49.3516 22.3285 49.6612 22.4672C49.9707 22.606 50.3111 22.6677 50.6825 22.6677Z" fill="#191919"/>
<path d="M60.1377 24.2097C59.5187 24.2097 58.9461 24.1018 58.4199 23.9013C57.8937 23.7008 57.4295 23.4079 57.0426 23.0378C56.6557 22.6677 56.3462 22.2205 56.1295 21.7116C55.8974 21.1874 55.7891 20.6168 55.7891 20C55.7891 19.3678 55.8974 18.7972 56.1295 18.2884C56.3617 17.7641 56.6557 17.3323 57.0426 16.9622C57.4295 16.5921 57.8937 16.2991 58.4199 16.0987C58.9461 15.8982 59.5187 15.7903 60.1377 15.7903C60.5865 15.7903 60.9889 15.852 61.3448 15.9599C61.7007 16.0678 62.0257 16.222 62.3043 16.4071C62.5828 16.5921 62.815 16.808 63.0316 17.0393C63.2328 17.286 63.4185 17.5328 63.5578 17.7795L62.0567 18.5042C61.8864 18.165 61.6234 17.8874 61.2829 17.6561C60.9424 17.4248 60.5555 17.3169 60.1377 17.3169C59.7663 17.3169 59.4258 17.3786 59.1163 17.5173C58.8068 17.6561 58.5282 17.8412 58.2961 18.0725C58.064 18.3192 57.8937 18.5968 57.7699 18.9206C57.6461 19.2444 57.5842 19.5991 57.5842 19.9846C57.5842 20.3701 57.6461 20.7247 57.7699 21.0486C57.8937 21.3724 58.0794 21.6654 58.2961 21.8967C58.5282 22.128 58.7913 22.313 59.1163 22.4518C59.4258 22.5906 59.7663 22.6523 60.1377 22.6523C60.5555 22.6523 60.9424 22.5443 61.2829 22.313C61.6234 22.0817 61.8864 21.8042 62.0567 21.4649L63.5578 22.1897C63.403 22.4364 63.2328 22.6831 63.0316 22.9298C62.8304 23.1766 62.5828 23.377 62.3043 23.5775C62.0257 23.7625 61.7007 23.9167 61.3448 24.0247C60.9889 24.1326 60.5865 24.2097 60.1377 24.2097Z" fill="#191919"/>
<path d="M69.4542 24.0709L66.9781 20.8173L66.3436 21.5729V24.0709H64.6104V15.9291H66.3436V19.5682L69.2375 15.9291H71.3886L68.1388 19.7533L71.6053 24.0709H69.4542Z" fill="#191919"/>
<path d="M72.3945 24.0709V15.9291H78.1824V17.4557H74.1278V19.1827H78.0895V20.7093H74.1278V22.5598H78.1669V24.0864H72.3945V24.0709Z" fill="#191919"/>
<path d="M81.4164 24.0709V17.4557H79.0332V15.9291H85.533V17.4557H83.1497V24.0709H81.4164Z" fill="#191919"/>
<path d="M13.1849 36.33C12.4266 36.33 11.6683 36.0833 11.0492 35.5898C10.2909 34.973 9.8112 34.0786 9.76477 33.1072C9.71835 32.1357 10.0743 31.1951 10.7707 30.5011C10.9254 30.3469 11.173 30.3469 11.3123 30.5011C11.4671 30.6554 11.4671 30.9021 11.3123 31.0409C10.7862 31.5651 10.4921 32.3053 10.5386 33.0609C10.585 33.8165 10.9409 34.5104 11.5445 34.9884C12.5039 35.744 13.8813 35.744 14.8408 34.9884C15.4443 34.5104 15.8002 33.8319 15.8467 33.0609C15.8931 32.3053 15.5991 31.5806 15.0729 31.0409C14.9181 30.8867 14.9181 30.6399 15.0729 30.5011C15.2277 30.3469 15.4753 30.3469 15.6145 30.5011C16.2955 31.1796 16.6669 32.1357 16.6205 33.1072C16.574 34.0786 16.0943 34.973 15.336 35.5898C14.7015 36.0833 13.9432 36.33 13.1849 36.33Z" fill="#191919"/>
<path d="M11.7923 30.825C11.2197 30.825 10.6316 30.6245 10.1828 30.2082C9.70307 29.761 9.43999 29.175 9.42451 28.5274C9.40904 27.8797 9.65665 27.2783 10.1209 26.8157C10.2757 26.6615 10.5233 26.6615 10.6626 26.8157C10.8173 26.9699 10.8173 27.2166 10.6626 27.3554C10.353 27.6638 10.1828 28.0648 10.1983 28.4965C10.2138 28.9283 10.384 29.3292 10.709 29.6222C11.2971 30.1773 12.272 30.1773 12.8601 29.6222C13.1851 29.3292 13.3553 28.9283 13.3708 28.4965C13.3862 28.0648 13.216 27.6484 12.9065 27.3554C12.7518 27.2012 12.7518 26.9545 12.9065 26.8157C13.0613 26.6615 13.3089 26.6615 13.4482 26.8157C13.9124 27.2783 14.1446 27.8797 14.1446 28.5274C14.1291 29.175 13.866 29.7764 13.3862 30.2082C12.9375 30.6245 12.3649 30.825 11.7923 30.825Z" fill="#191919"/>
<path d="M15.6913 31.0563C15.2115 31.0563 14.7318 30.8867 14.3604 30.532C13.9735 30.1773 13.7568 29.6839 13.7568 29.1596C13.7568 28.6353 13.958 28.1419 14.3294 27.7718C14.4842 27.6176 14.7318 27.6176 14.8711 27.7718C15.0258 27.926 15.0258 28.1727 14.8711 28.3115C14.6544 28.5274 14.5306 28.8358 14.5306 29.1442C14.5306 29.4526 14.6699 29.7456 14.902 29.9769C15.3353 30.3932 16.0627 30.3932 16.496 29.9769C16.7281 29.761 16.8519 29.468 16.8674 29.1442C16.8674 28.8358 16.7436 28.5274 16.527 28.3115C16.3722 28.1573 16.3722 27.9106 16.527 27.7718C16.6817 27.6176 16.9293 27.6176 17.0686 27.7718C17.44 28.1419 17.6412 28.6353 17.6412 29.1596C17.6412 29.6839 17.4245 30.1773 17.0377 30.532C16.6508 30.8712 16.171 31.0563 15.6913 31.0563Z" fill="#191919"/>
<path d="M14.3608 28.1419C14.0358 28.1419 13.7263 28.0493 13.4477 27.8643C13.0299 27.5867 12.7668 27.1396 12.7204 26.6461C12.674 26.1527 12.8442 25.6746 13.2001 25.32C13.3549 25.1658 13.6025 25.1658 13.7418 25.32C13.8965 25.4742 13.8965 25.7209 13.7418 25.8597C13.5561 26.0447 13.4632 26.3069 13.4942 26.569C13.5251 26.8311 13.6644 27.0625 13.8811 27.2167C14.1751 27.4171 14.562 27.4171 14.8405 27.2167C15.0727 27.0625 15.212 26.8311 15.2274 26.569C15.2584 26.3069 15.1655 26.0447 14.9798 25.8597C14.8251 25.7055 14.8251 25.4587 14.9798 25.32C15.1346 25.1658 15.3822 25.1658 15.5215 25.32C15.8774 25.6746 16.0476 26.1527 16.0012 26.6461C15.9548 27.1396 15.6917 27.5867 15.2739 27.8643C14.9953 28.0493 14.6858 28.1419 14.3608 28.1419Z" fill="#191919"/>
<path d="M9.50171 32.3978C9.43981 32.3978 9.37791 32.3978 9.316 32.3824C8.82079 32.3207 8.38747 32.0586 8.10891 31.6423C7.75297 31.0871 7.75297 30.3624 8.13986 29.8227C8.4339 29.4063 8.86721 29.1596 9.36243 29.1133C9.85765 29.0671 10.3374 29.2521 10.6779 29.6068C10.8326 29.761 10.8171 30.0077 10.6779 30.1465C10.5231 30.3007 10.2755 30.2853 10.1362 30.1465C9.9505 29.9615 9.70289 29.8689 9.43981 29.8844C9.17672 29.8998 8.94459 30.0386 8.78983 30.2699C8.58865 30.5474 8.58865 30.9329 8.77436 31.2259C8.92911 31.4572 9.16125 31.596 9.42433 31.6268C9.68742 31.6577 9.9505 31.5652 10.1362 31.3801C10.291 31.2259 10.5386 31.2413 10.6779 31.3801C10.8326 31.5343 10.8171 31.781 10.6779 31.9198C10.3374 32.2282 9.91955 32.3978 9.50171 32.3978Z" fill="#191919"/>
<path d="M9.98163 37.286C9.96615 37.286 9.96615 37.286 9.95068 37.286C9.28523 37.2706 8.68168 36.8543 8.44955 36.2529C8.26384 35.7903 8.31027 35.266 8.5424 34.8342C8.79001 34.4025 9.20785 34.1095 9.68759 34.017C9.90425 33.9861 10.1054 34.1249 10.1364 34.3254C10.1673 34.5413 10.0281 34.7417 9.82687 34.7726C9.56379 34.8188 9.34713 34.973 9.22333 35.2043C9.09952 35.4356 9.06857 35.6978 9.1769 35.9599C9.3007 36.2837 9.62569 36.4996 9.96615 36.4996C10.2447 36.4996 10.4923 36.3917 10.6626 36.1912C10.8328 35.9907 10.9102 35.7286 10.8637 35.4665C10.8328 35.2506 10.9721 35.0501 11.1732 35.0193C11.3899 34.9884 11.5911 35.1272 11.622 35.3277C11.7149 35.8057 11.5756 36.3146 11.2506 36.6847C10.9411 37.0702 10.4768 37.286 9.98163 37.286Z" fill="#191919"/>
<path d="M12.9368 27.1396C12.8903 27.1396 12.8284 27.1241 12.782 27.1087C12.5035 26.9854 12.0082 27.0316 11.8535 27.0625C11.6368 27.0933 11.4356 26.9545 11.4047 26.7541C11.3737 26.5382 11.513 26.3377 11.7142 26.3069C11.7916 26.2914 12.5499 26.1681 13.0915 26.4148C13.2927 26.5073 13.3701 26.7232 13.2927 26.9237C13.2308 27.0625 13.0761 27.1396 12.9368 27.1396Z" fill="#191919"/>
<path d="M15.9545 27.6638C15.8925 27.6638 15.8306 27.6484 15.7842 27.6176C15.5521 27.5096 15.4128 27.4171 15.4128 27.4171C15.2271 27.3092 15.1807 27.0625 15.289 26.8774C15.3973 26.6924 15.6449 26.6461 15.8152 26.754C15.8152 26.754 15.9235 26.8312 16.1247 26.9237C16.3104 27.0162 16.3878 27.2475 16.2949 27.448C16.233 27.5867 16.1092 27.6638 15.9545 27.6638Z" fill="#191919"/>
<path d="M8.69649 29.8689C8.58816 29.8689 8.47983 29.8227 8.40245 29.7456L7.84533 29.1133C7.14893 28.3269 6.94775 27.2321 7.31916 26.2452C7.70605 25.1966 8.68101 24.4873 9.81073 24.4102L10.8631 24.3485C11.0797 24.3331 11.2654 24.5027 11.2654 24.7032C11.2809 24.919 11.1107 25.1041 10.9095 25.1041L9.85716 25.1658C9.05243 25.212 8.34055 25.7363 8.04651 26.4919C7.78343 27.2012 7.92271 28.0031 8.4334 28.5736L8.99052 29.2059C9.1298 29.3601 9.11433 29.6068 8.95957 29.7456C8.86672 29.8381 8.78934 29.8689 8.69649 29.8689Z" fill="#191919"/>
<path d="M17.2391 28.6353C17.2081 28.6353 17.1927 28.6353 17.1617 28.6199C16.9451 28.5736 16.8212 28.3732 16.8677 28.1573L17.1462 26.8003C17.2236 26.3994 17.1462 26.0139 16.9141 25.6746C16.682 25.3508 16.326 25.1349 15.9237 25.0887C15.707 25.0578 15.5677 24.8728 15.5832 24.6569C15.5987 24.441 15.7999 24.3022 16.0165 24.3177C16.6201 24.3948 17.1772 24.7186 17.5331 25.212C17.8891 25.7055 18.0283 26.3377 17.9045 26.9391L17.626 28.2961C17.5796 28.512 17.4093 28.6353 17.2391 28.6353Z" fill="#191919"/>
<path d="M16.8057 34.4025C16.5271 34.4025 16.2486 34.3716 15.97 34.3099C15.7688 34.2637 15.6295 34.0478 15.676 33.8473C15.7224 33.6469 15.939 33.5081 16.1402 33.5544C17.7033 33.909 19.2663 32.9375 19.6377 31.3801C19.9936 29.8227 19.0187 28.2652 17.4556 27.8951C17.2545 27.8489 17.1152 27.633 17.1616 27.4325C17.208 27.2321 17.4247 27.0933 17.6259 27.1396C19.6068 27.6022 20.8448 29.576 20.396 31.5497C19.9936 33.246 18.477 34.4025 16.8057 34.4025Z" fill="#191919"/>
<path d="M11.0024 25.0733L3.46582 21.9738L7.24186 13.5389L7.96921 13.8165L5.91096 20.5089L11.3893 23.0224L11.0024 25.0733ZM4.50268 21.5574L10.4143 23.9938L10.5072 23.4696L4.96695 20.9252L5.38479 19.5682L4.50268 21.5574Z" fill="#191919"/>
<path d="M15.7843 25.0733L15.3975 23.0224L20.8758 20.5089L18.8176 13.8165L19.5449 13.5389L23.3209 21.9738L15.7843 25.0733ZM16.2796 23.4696L16.3724 23.9938L22.2841 21.5574L21.3865 19.5528L21.8043 20.9098L16.2796 23.4696Z" fill="#191919"/>
<path d="M16.7288 23.3153H9.98145V8.37317H16.7288V23.3153ZM10.7552 22.5443H15.955V9.14418H10.7552V22.5443Z" fill="#191919"/>
<path d="M12.3332 20.7864C12.1165 20.7864 11.9463 20.6168 11.9463 20.4009V9.06708C11.9463 8.8512 12.1165 8.68158 12.3332 8.68158C12.5498 8.68158 12.7201 8.8512 12.7201 9.06708V20.4009C12.7201 20.6168 12.5498 20.7864 12.3332 20.7864Z" fill="#191919"/>
<path d="M14.3615 13.7702C14.1448 13.7702 13.9746 13.6006 13.9746 13.3847V9.06708C13.9746 8.8512 14.1448 8.68158 14.3615 8.68158C14.5782 8.68158 14.7484 8.8512 14.7484 9.06708V13.3847C14.7484 13.6006 14.5782 13.7702 14.3615 13.7702Z" fill="#191919"/>
<path d="M15.9853 8.75868L13.7723 3.76253C13.664 3.51581 13.4163 3.48497 13.3544 3.48497C13.2771 3.48497 13.0449 3.50039 12.9366 3.76253L10.7236 8.75868L10.0117 8.45027L12.2247 3.45413C12.4259 3.00694 12.8592 2.71396 13.3544 2.71396C13.8497 2.71396 14.283 2.99152 14.4842 3.45413L16.6972 8.45027L15.9853 8.75868Z" fill="#191919"/>
<path d="M14.3615 23.0686C14.1448 23.0686 13.9746 22.899 13.9746 22.6831V15.6052C13.9746 15.3894 14.1448 15.2197 14.3615 15.2197C14.5782 15.2197 14.7484 15.3894 14.7484 15.6052V22.6831C14.7484 22.899 14.5782 23.0686 14.3615 23.0686Z" fill="#191919"/>
<path d="M12.3332 23.3153C12.1165 23.3153 11.9463 23.1457 11.9463 22.9298V22.1126C11.9463 21.8967 12.1165 21.7271 12.3332 21.7271C12.5498 21.7271 12.7201 21.8967 12.7201 22.1126V22.9298C12.7201 23.1457 12.5498 23.3153 12.3332 23.3153Z" fill="#191919"/>
<path d="M11.8545 5.22745H15.0425L13.3556 3.14572L11.8545 5.22745Z" fill="#191919"/>
<path d="M14.778 25.7055H11.9305C11.5436 25.7055 11.1722 25.5204 10.9246 25.212C10.677 24.9036 10.5996 24.5027 10.7079 24.1326L11.1103 22.5598H15.5827L15.9851 24.1326C16.078 24.5181 16.0006 24.9036 15.7685 25.212C15.5363 25.5204 15.1649 25.7055 14.778 25.7055ZM11.7139 23.3153L11.4508 24.3177C11.4198 24.4719 11.4508 24.6106 11.5436 24.734C11.6365 24.8574 11.7758 24.919 11.9305 24.919H14.778C14.9328 24.919 15.0721 24.8574 15.1649 24.734C15.2578 24.6106 15.2887 24.4564 15.2578 24.3177L14.9947 23.3153H11.7139Z" fill="#191919"/>
</svg>
