<svg width="21" height="21" viewBox="0 0 21 21" fill="none" xmlns="http://www.w3.org/2000/svg">
<g opacity="1">
<path d="M13.9262 11.9194C13.3984 11.3916 12.7701 11.0008 12.0847 10.7643C12.8188 10.2587 13.3012 9.41242 13.3012 8.45554C13.3012 6.91069 12.0443 5.65385 10.4995 5.65385C8.95463 5.65385 7.69779 6.91069 7.69779 8.45554C7.69779 9.41242 8.18012 10.2587 8.91429 10.7643C8.22882 11.0008 7.60057 11.3916 7.07273 11.9194C6.15741 12.8347 5.65332 14.0517 5.65332 15.3462H6.41053C6.41053 13.0915 8.24482 11.2572 10.4995 11.2572C12.7541 11.2572 14.5884 13.0915 14.5884 15.3462H15.3456C15.3456 14.0517 14.8415 12.8347 13.9262 11.9194ZM10.4995 10.5C9.37216 10.5 8.455 9.58287 8.455 8.45554C8.455 7.3282 9.37216 6.41107 10.4995 6.41107C11.6268 6.41107 12.5439 7.3282 12.5439 8.45554C12.5439 9.58287 11.6268 10.5 10.4995 10.5Z" fill="#191919"/>
<circle cx="10.5" cy="10.5" r="10.1" stroke="#191919" stroke-width="0.8"/>
</g>
</svg>
