<svg width="23" height="23" viewBox="0 0 23 23" fill="none" xmlns="http://www.w3.org/2000/svg">
<g opacity="1">
<g clip-path="url(#clip0)">
<path d="M22.7801 6.38803L15.507 3.61516C15.3306 3.54795 15.1332 3.63639 15.066 3.81257C14.9988 3.98892 15.0873 4.18633 15.2636 4.25354L21.6995 6.70722L17.2442 8.40601L11.6409 5.86897C11.4689 5.79106 11.2666 5.86739 11.1889 6.03918C11.111 6.21115 11.1873 6.41348 11.3591 6.49139L16.3449 8.74889L11.5 10.596L1.30045 6.70722L11.5 2.81849L14.0135 3.77695C14.1895 3.84398 14.3871 3.75571 14.4545 3.57936C14.5217 3.40318 14.4333 3.20577 14.2569 3.13856L11.6218 2.13379C11.5433 2.10396 11.4567 2.10378 11.3782 2.13379L0.219872 6.38803C0.0875626 6.43857 0 6.56561 0 6.70722V8.26721C0 8.40882 0.0875626 8.53586 0.219872 8.5864L3.7043 9.91475V11.0985C3.7043 11.2872 3.85714 11.4402 4.04578 11.4402C4.23459 11.4402 4.38743 11.2872 4.38743 11.0985V10.1753L11.3782 12.8406C11.4175 12.8556 11.4588 12.8631 11.5 12.8631C11.5412 12.8631 11.5825 12.8556 11.6218 12.8406L16.8913 10.8316V16.2377C15.2369 17.1061 13.3818 17.5715 11.5 17.5715C8.93173 17.5715 6.4126 16.7057 4.38743 15.1301V12.4649C4.38743 12.2763 4.23459 12.1233 4.04578 12.1233C3.85714 12.1233 3.7043 12.2763 3.7043 12.4649V15.2956C3.7043 15.3993 3.75133 15.4974 3.83222 15.5621C5.99953 17.2984 8.72274 18.2546 11.5 18.2546C13.373 18.2546 15.2211 17.8191 16.8913 17.0033V18.3859C16.3409 18.5362 15.935 19.0404 15.935 19.6379C15.935 20.3535 16.5172 20.9359 17.2328 20.9359C17.9486 20.9359 18.5308 20.3535 18.5308 19.6379C18.5308 19.0404 18.1249 18.5362 17.5745 18.3859V16.6425C18.1312 16.3258 18.6647 15.9653 19.168 15.5621C19.2488 15.4974 19.2961 15.3993 19.2961 15.2956V9.91458L22.7801 8.58622C22.9124 8.53586 23 8.40882 23 8.26703V6.70722C23 6.56561 22.9124 6.43857 22.7801 6.38803ZM17.8477 19.6379C17.8477 19.9767 17.5718 20.2526 17.2328 20.2526C16.894 20.2526 16.6181 19.9767 16.6181 19.6379C16.6181 19.2989 16.894 19.023 17.2328 19.023C17.5718 19.023 17.8477 19.2989 17.8477 19.6379ZM0.683128 7.20312L11.1583 11.197V12.0256L0.683128 8.03172V7.20312ZM11.8417 12.0256V11.197L16.8913 9.27163V10.1004L11.8417 12.0256ZM18.6127 15.1299C18.2795 15.3893 17.9326 15.629 17.5745 15.849V10.571L18.6127 10.1752V15.1299ZM17.5745 9.83982V9.01123L22.3169 7.20312V8.03172L17.5745 9.83982Z" fill="#191919"/>
</g>
</g>
<defs>
<clipPath id="clip0">
<rect width="23" height="23" fill="white"/>
</clipPath>
</defs>
</svg>
