<svg width="30" height="30" viewBox="0 0 30 30" fill="none" xmlns="http://www.w3.org/2000/svg">
<path d="M19.8956 17.0279C19.1415 16.2739 18.244 15.7157 17.2648 15.3778C18.3136 14.6554 19.0026 13.4465 19.0026 12.0796C19.0026 9.87263 17.2071 8.07715 15.0002 8.07715C12.7933 8.07715 10.9978 9.87263 10.9978 12.0796C10.9978 13.4465 11.6869 14.6554 12.7357 15.3778C11.7564 15.7157 10.8589 16.2739 10.1049 17.0279C8.79728 18.3356 8.07715 20.0741 8.07715 21.9233H9.15888C9.15888 18.7024 11.7793 16.082 15.0002 16.082C18.2212 16.082 20.8416 18.7024 20.8416 21.9233H21.9233C21.9233 20.0741 21.2032 18.3356 19.8956 17.0279ZM15.0002 15.0002C13.3898 15.0002 12.0796 13.69 12.0796 12.0796C12.0796 10.4691 13.3898 9.15888 15.0002 9.15888C16.6107 9.15888 17.9209 10.4691 17.9209 12.0796C17.9209 13.69 16.6107 15.0002 15.0002 15.0002Z" fill="#191919"/>
<circle cx="15" cy="15" r="14.4" stroke="#191919" stroke-width="1.2"/>
</svg>
