<svg width="30" height="30" viewBox="0 0 30 30" fill="none" xmlns="http://www.w3.org/2000/svg">
<path d="M29.25 15C29.25 22.8701 22.8701 29.25 15 29.25C7.12994 29.25 0.75 22.8701 0.75 15C0.75 7.12994 7.12994 0.75 15 0.75C22.8701 0.75 29.25 7.12994 29.25 15Z" stroke="white" stroke-width="1.5"/>
<path d="M18.9994 7.00333L16.9246 7C14.5936 7 13.0872 8.54552 13.0872 10.9376V12.7531H11.0011C10.8208 12.7531 10.6748 12.8993 10.6748 13.0795V15.71C10.6748 15.8903 10.8209 16.0363 11.0011 16.0363H13.0872V22.6738C13.0872 22.854 13.2332 23 13.4134 23H16.1353C16.3155 23 16.4615 22.8539 16.4615 22.6738V16.0363H18.9007C19.0809 16.0363 19.2269 15.8903 19.2269 15.71L19.2279 13.0795C19.2279 12.993 19.1935 12.9101 19.1324 12.8488C19.0713 12.7876 18.9881 12.7531 18.9015 12.7531H16.4615V11.2141C16.4615 10.4744 16.6378 10.0989 17.6014 10.0989L18.9991 10.0984C19.1792 10.0984 19.3251 9.95222 19.3251 9.77211V7.32958C19.3251 7.14964 19.1793 7.00366 18.9994 7.00333Z" fill="white"/>
</svg>
