<svg width="60" height="60" viewBox="0 0 60 60" fill="none" xmlns="http://www.w3.org/2000/svg">
<g opacity="0.05">
<path d="M19.2032 27.6543C17.7255 27.2289 16.2477 27.013 14.8102 27.013C12.5904 27.013 10.7382 27.5203 9.30195 28.1415C10.6866 23.0725 14.0128 14.326 20.6388 13.341C21.2525 13.2497 21.7554 12.806 21.9228 12.2087L23.371 7.02895C23.4931 6.5909 23.4207 6.12202 23.1708 5.74187C22.921 5.36173 22.5194 5.10809 22.0694 5.04641C21.5804 4.97969 21.0819 4.94571 20.5879 4.94571C12.6345 4.94571 4.75788 13.2472 1.43416 25.1337C-0.516892 32.1072 -1.08899 42.5914 3.7169 49.1904C6.40621 52.883 10.3297 54.8549 15.3785 55.0519C15.3993 55.0525 15.4195 55.0531 15.4402 55.0531C21.6698 55.0531 27.1938 50.8577 28.8742 44.8515C29.878 41.2609 29.4243 37.4953 27.5953 34.2458C25.7859 31.0329 22.8058 28.6909 19.2032 27.6543Z" fill="#191919"/>
<path d="M58.1983 34.2465C56.3888 31.0329 53.4087 28.6909 49.8062 27.6543C48.3284 27.2289 46.8507 27.013 45.4138 27.013C43.194 27.013 41.3411 27.5203 39.9049 28.1415C41.2895 23.0725 44.6158 14.326 51.2424 13.341C51.8561 13.2497 52.3583 12.806 52.5263 12.2087L53.9745 7.02895C54.0966 6.5909 54.0243 6.12202 53.7744 5.74187C53.5252 5.36173 53.1236 5.10809 52.673 5.04641C52.1846 4.97969 51.6861 4.94571 51.1914 4.94571C43.2381 4.94571 35.3615 13.2472 32.0371 25.1337C30.0867 32.1072 29.5146 42.5914 34.3211 49.1917C37.0098 52.8836 40.9339 54.8561 45.9821 55.0525C46.0029 55.0531 46.023 55.0537 46.0444 55.0537C52.2733 55.0537 57.798 50.8583 59.4784 44.8521C60.481 41.2615 60.0266 37.4953 58.1983 34.2465Z" fill="#191919"/>
</g>
</svg>
