<svg width="17" height="17" viewBox="0 0 17 17" fill="none" xmlns="http://www.w3.org/2000/svg">
<path d="M15.2214 10.4767L13.9382 9.21942L8.16435 3.56182C7.64838 3.06395 6.95898 2.78628 6.24197 2.78755C5.52496 2.78882 4.83656 3.06892 4.32235 3.56862C4.07068 3.81303 3.87048 4.10535 3.73353 4.42834C3.59659 4.75133 3.52569 5.09846 3.52499 5.44928C3.52429 5.8001 3.59382 6.14751 3.72948 6.47104C3.86513 6.79458 4.06417 7.08768 4.31487 7.3331L10.0888 12.9921C10.2031 13.1038 10.3566 13.1663 10.5165 13.1663C10.6763 13.1663 10.8299 13.1038 10.9442 12.9921C11.0003 12.9376 11.0449 12.8724 11.0754 12.8004C11.1059 12.7284 11.1216 12.651 11.1216 12.5728C11.1216 12.4946 11.1059 12.4172 11.0754 12.3452C11.0449 12.2732 11.0003 12.2081 10.9442 12.1536L5.17031 6.49534C5.03022 6.35921 4.91885 6.19636 4.8428 6.01643C4.76676 5.83649 4.72757 5.64314 4.72757 5.4478C4.72757 5.25246 4.76676 5.0591 4.8428 4.87917C4.91885 4.69924 5.03022 4.53639 5.17031 4.40026C5.45666 4.1219 5.84026 3.96618 6.23961 3.96618C6.63896 3.96618 7.02256 4.1219 7.30891 4.40026L13.0848 10.0579L14.368 11.3152C14.6203 11.5603 14.8209 11.8535 14.9579 12.1775C15.0949 12.5015 15.1655 12.8497 15.1655 13.2015C15.1655 13.5533 15.0949 13.9015 14.9579 14.2255C14.8209 14.5495 14.6203 14.8427 14.368 15.0878C13.8524 15.5889 13.1618 15.8692 12.4429 15.8692C11.724 15.8692 11.0334 15.5889 10.5178 15.0878L9.44887 14.0399L3.45943 8.17154L3.03171 7.75198C2.67661 7.39592 2.39575 6.97289 2.20544 6.50743C2.01513 6.04197 1.91915 5.54335 1.92307 5.04051C1.92699 4.53766 2.03074 4.0406 2.22829 3.57816C2.42584 3.11573 2.71326 2.69713 3.07387 2.34666C3.81115 1.63039 4.79641 1.22629 5.82431 1.21856C6.8522 1.21083 7.84342 1.60008 8.59139 2.30518L15.0079 8.5911C15.0837 8.66493 15.1774 8.71783 15.2797 8.74465C15.3821 8.77147 15.4897 8.77128 15.592 8.7441C15.6938 8.71792 15.7869 8.66544 15.8619 8.59192C15.937 8.51839 15.9914 8.42642 16.0197 8.32522C16.0471 8.22451 16.0471 8.1183 16.0195 8.01762C15.992 7.91694 15.9381 7.82545 15.8633 7.75266L9.44751 1.46674C8.47312 0.524105 7.17004 -0.00219124 5.81432 -0.00066809C4.45859 0.000855056 3.1567 0.530078 2.18443 1.4749C1.70839 1.93693 1.32979 2.4897 1.07101 3.10054C0.812223 3.71137 0.678498 4.36788 0.677738 5.03127C0.676977 5.69467 0.809195 6.35148 1.06658 6.96291C1.32396 7.57434 1.70129 8.12797 2.17627 8.5911L8.59207 14.877L9.66307 15.9249C10.4122 16.6255 11.4023 17.0107 12.428 17.0005C13.4536 16.9904 14.4359 16.5857 15.1711 15.8705C15.5305 15.5208 15.8171 15.1033 16.0143 14.6422C16.2115 14.1811 16.3155 13.6856 16.3201 13.1841C16.3248 12.6826 16.2301 12.1852 16.0415 11.7205C15.853 11.2558 15.5742 10.8331 15.2214 10.4767Z" fill="#191919"/>
</svg>
