<svg width="36" height="36" viewBox="0 0 36 36" fill="none" xmlns="http://www.w3.org/2000/svg">
<path d="M9 0C7.7625 0 6.75 1.0125 6.75 2.25V33.75C6.75 34.9875 7.7625 36 9 36H31.5C32.7375 36 33.75 34.9875 33.75 33.75V9L24.75 0H9Z" fill="#E2E5E7"/>
<path d="M27 9H33.75L24.75 0V6.75C24.75 7.9875 25.7625 9 27 9Z" fill="#B0B7BD"/>
<path d="M33.75 15.75L27 9H33.75V15.75Z" fill="#CAD1D8"/>
<path d="M29.25 29.25C29.25 29.8687 28.7437 30.375 28.125 30.375H3.375C2.75625 30.375 2.25 29.8687 2.25 29.25V18C2.25 17.3812 2.75625 16.875 3.375 16.875H28.125C28.7437 16.875 29.25 17.3812 29.25 18V29.25Z" fill="#50BEE8"/>
<path d="M6.50869 26.9995C6.21169 26.9995 5.8877 26.8364 5.8877 26.4415V21.3329C5.8877 21.0089 6.21169 20.7749 6.50869 20.7749H8.56857C12.6793 20.7749 12.5882 26.9995 8.64845 26.9995H6.50869ZM7.0757 21.8718V25.9015H8.56857C10.9974 25.9015 11.1043 21.8718 8.56857 21.8718H7.0757Z" fill="white"/>
<path d="M16.0306 27.0899C14.3667 27.1619 12.6387 26.0549 12.6387 23.851C12.6387 21.6382 14.3656 20.5503 16.0306 20.5503C17.6044 20.6302 19.2503 21.7192 19.2503 23.851C19.2503 25.984 17.6044 27.0899 16.0306 27.0899ZM15.9316 21.7203C14.9236 21.7203 13.8267 22.4313 13.8267 23.8522C13.8267 25.2652 14.9247 25.9852 15.9316 25.9852C16.9666 25.9852 18.0724 25.2652 18.0724 23.8522C18.0724 22.4302 16.9666 21.7203 15.9316 21.7203Z" fill="white"/>
<path d="M20.3096 23.842C20.3096 22.1062 21.3986 20.6133 23.4675 20.6133C24.2505 20.6133 24.8715 20.8473 25.5273 21.4143C25.7703 21.6382 25.7973 22.0342 25.5543 22.2862C25.3113 22.501 24.9423 22.4752 24.7263 22.2592C24.3585 21.8722 23.9805 21.7653 23.4675 21.7653C22.0826 21.7653 21.4177 22.7463 21.4177 23.8432C21.4177 24.9592 22.0736 25.984 23.4675 25.984C23.9805 25.984 24.4575 25.7759 24.8715 25.408C25.1493 25.192 25.5363 25.2989 25.6983 25.516C25.8423 25.714 25.9132 26.047 25.5993 26.3609C24.9693 26.947 24.2145 27.064 23.4663 27.064C21.2906 27.064 20.3096 25.5779 20.3096 23.842Z" fill="white"/>
<path d="M28.125 30.375H6.75V31.5H28.125C28.7437 31.5 29.25 30.9937 29.25 30.375V29.25C29.25 29.8688 28.7437 30.375 28.125 30.375Z" fill="#CAD1D8"/>
</svg>
