<svg width="40" height="40" viewBox="0 0 40 40" fill="none" xmlns="http://www.w3.org/2000/svg">
<rect width="40" height="40" rx="10" fill="#F9F9F9"/>
<path d="M28.3665 21.9513L26.7304 20.6719C26.7519 20.4746 26.7689 20.244 26.7689 20C26.7689 19.756 26.7511 19.5253 26.7304 19.328L28.368 18.048C28.672 17.8077 28.7558 17.3812 28.5615 17.026L26.8601 14.0823C26.674 13.7434 26.2564 13.5884 25.876 13.7285L23.9454 14.5036C23.5761 14.2366 23.1882 14.0111 22.7869 13.8309L22.4932 11.7832C22.445 11.3938 22.1068 11.1001 21.7071 11.1001H18.2954C17.8957 11.1001 17.5575 11.3937 17.51 11.7757L17.2156 13.8309C16.827 14.0066 16.445 14.2284 16.0586 14.5043L14.1229 13.7271C13.7528 13.5824 13.3315 13.7352 13.1461 14.0749L11.4425 17.023C11.2415 17.3627 11.3238 17.8032 11.6353 18.0494L13.2714 19.3281C13.2455 19.5788 13.2329 19.7961 13.2329 20C13.2329 20.204 13.2455 20.4213 13.27 20.672L11.6324 21.9528C11.329 22.1931 11.2459 22.6195 11.4395 22.9748L13.1409 25.9185C13.3256 26.2567 13.7424 26.4109 14.1251 26.2722L16.0556 25.4972C16.425 25.7635 16.8136 25.9889 17.2148 26.1699L17.5085 28.2169C17.5567 28.6062 17.8949 28.8999 18.2947 28.8999H21.7063C22.1061 28.8999 22.4443 28.6062 22.4917 28.2243L22.7862 26.1699C23.1748 25.9941 23.5567 25.7723 23.9432 25.4964L25.8789 26.2737C26.2475 26.4168 26.6703 26.2655 26.8557 25.9259L28.5659 22.9674C28.7551 22.6203 28.672 22.1938 28.3665 21.9513ZM27.9177 22.604L26.1511 25.5839L24.0277 24.731C23.9076 24.6828 23.7711 24.7014 23.6673 24.7785C23.2074 25.1226 22.7632 25.3815 22.3078 25.5676C22.1862 25.6173 22.0994 25.7278 22.0809 25.8584L21.7063 28.1583L18.245 28.119L17.9209 25.8591C17.9016 25.7286 17.8156 25.6181 17.6939 25.5684C17.22 25.3741 16.7639 25.1093 16.3374 24.7815C16.2714 24.7303 16.1913 24.7043 16.1112 24.7043C16.0645 24.7043 16.0178 24.7125 15.9725 24.731L13.7883 25.555L12.0869 22.6113C12.0714 22.5824 12.0743 22.549 12.0921 22.5349L13.8921 21.128C13.9945 21.0479 14.0479 20.9189 14.0316 20.7898C13.9923 20.4791 13.9745 20.2276 13.9745 20C13.9745 19.7723 13.993 19.5216 14.0316 19.2101C14.0479 19.0803 13.9945 18.952 13.8921 18.8719L12.0833 17.3968L13.8499 14.4168L15.9733 15.2697C16.0942 15.3186 16.2299 15.3001 16.3345 15.2222C16.7935 14.8773 17.2385 14.6192 17.6939 14.4331C17.8156 14.3826 17.9016 14.2722 17.9202 14.1423L18.2954 11.8417L21.7575 11.8818L22.0809 14.1423C22.1002 14.2729 22.1862 14.3834 22.3078 14.4331C22.781 14.6267 23.2371 14.8914 23.6643 15.22C23.7689 15.3001 23.9061 15.3194 24.0285 15.2697L26.2127 14.4457L27.9141 17.3894C27.9297 17.4183 27.9267 17.4509 27.9089 17.465L26.1089 18.8719C26.0065 18.952 25.9531 19.0803 25.9695 19.2101C25.9977 19.4356 26.0266 19.7063 26.0266 20C26.0266 20.2944 25.9977 20.5644 25.9695 20.7899C25.9531 20.9189 26.0065 21.048 26.1089 21.1281L27.9067 22.5343C27.9259 22.5498 27.9296 22.5832 27.9177 22.604Z" fill="#191919"/>
<path d="M20.0003 16.2917C17.9556 16.2917 16.292 17.9552 16.292 20C16.292 22.0448 17.9556 23.7083 20.0003 23.7083C22.0451 23.7083 23.7086 22.0448 23.7086 20C23.7086 17.9552 22.0451 16.2917 20.0003 16.2917ZM20.0003 22.9666C18.3642 22.9666 17.0337 21.6361 17.0337 20C17.0337 18.3639 18.3642 17.0334 20.0003 17.0334C21.6364 17.0334 22.967 18.3639 22.967 20C22.967 21.6361 21.6364 22.9666 20.0003 22.9666Z" fill="#191919"/>
</svg>
