<svg width="18" height="18" viewBox="0 0 18 18" fill="none" xmlns="http://www.w3.org/2000/svg">
<g clip-path="url(#clip0)">
<path d="M16.1088 9.7354L17.8452 7.99906C18.0511 7.79311 18.0511 7.45927 17.8452 7.25336C17.6393 7.04741 17.3054 7.04741 17.0995 7.25336L15.3631 8.98973L13.6267 7.25336C13.4208 7.04741 13.0869 7.04741 12.881 7.25336C12.6751 7.4593 12.6751 7.79315 12.881 7.99906L14.6174 9.7354L12.881 11.4717C12.6751 11.6777 12.6751 12.0115 12.881 12.2174C13.0869 12.4233 13.4208 12.4234 13.6267 12.2174L15.3631 10.4811L17.0995 12.2174C17.3054 12.4233 17.6393 12.4234 17.8452 12.2174C18.0511 12.0115 18.0511 11.6776 17.8452 11.4717L16.1088 9.7354Z" fill="#191919"/>
<path d="M10.6898 0.152169C10.1279 -0.111012 9.48275 -0.0277615 9.0061 0.36947L4.55482 4.07885H1.58193C0.70963 4.07885 0 4.78848 0 5.66078V12.3398C0 13.212 0.70963 13.9217 1.58193 13.9217H4.55485L9.00613 17.6311C9.48328 18.0287 10.1285 18.1113 10.6898 17.8484C11.2517 17.5852 11.6007 17.0363 11.6007 16.4158V1.58472C11.6007 0.964244 11.2517 0.415349 10.6898 0.152169ZM4.21844 12.8741H1.58193C1.29119 12.8741 1.05462 12.6305 1.05462 12.3397V5.66078C1.05462 5.37003 1.29119 5.13347 1.58193 5.13347H4.21844V12.8741ZM10.5461 16.4158C10.5461 16.7269 10.3137 16.86 10.2425 16.8933C10.1713 16.9267 9.92027 17.0201 9.68124 16.8208L5.27306 13.1474V4.85313L9.68124 1.17965C9.92027 0.980451 10.1713 1.07383 10.2425 1.10719C10.3137 1.14055 10.5461 1.27358 10.5461 1.58472V16.4158Z" fill="#191919"/>
</g>
<defs>
<clipPath id="clip0">
<rect width="18" height="18" fill="white"/>
</clipPath>
</defs>
</svg>
