<svg width="36" height="36" viewBox="0 0 36 36" fill="none" xmlns="http://www.w3.org/2000/svg">
<path d="M9 0C7.7625 0 6.75 1.0125 6.75 2.25V33.75C6.75 34.9875 7.7625 36 9 36H31.5C32.7375 36 33.75 34.9875 33.75 33.75V9L24.75 0H9Z" fill="#E2E5E7"/>
<path d="M27 9H33.75L24.75 0V6.75C24.75 7.9875 25.7625 9 27 9Z" fill="#B0B7BD"/>
<path d="M33.75 15.75L27 9H33.75V15.75Z" fill="#CAD1D8"/>
<path d="M29.25 29.25C29.25 29.8687 28.7437 30.375 28.125 30.375H3.375C2.75625 30.375 2.25 29.8687 2.25 29.25V18C2.25 17.3812 2.75625 16.875 3.375 16.875H28.125C28.7437 16.875 29.25 17.3812 29.25 18V29.25Z" fill="#F15642"/>
<path d="M7.15332 21.3153C7.15332 21.0183 7.38732 20.6943 7.7642 20.6943H9.84207C11.0121 20.6943 12.0651 21.4773 12.0651 22.9781C12.0651 24.4001 11.0121 25.1921 9.84207 25.1921H8.3402V26.3801C8.3402 26.7761 8.0882 27 7.7642 27C7.4672 27 7.15332 26.7761 7.15332 26.3801V21.3153ZM8.3402 21.8272V24.0682H9.84207C10.4451 24.0682 10.9221 23.5361 10.9221 22.9781C10.9221 22.3492 10.4451 21.8272 9.84207 21.8272H8.3402Z" fill="white"/>
<path d="M13.8271 27C13.5301 27 13.2061 26.838 13.2061 26.4431V21.3334C13.2061 21.0105 13.5301 20.7754 13.8271 20.7754H15.8869C19.9977 20.7754 19.9077 27 15.9679 27H13.8271ZM14.3941 21.8734V25.9031H15.8869C18.3158 25.9031 18.4238 21.8734 15.8869 21.8734H14.3941Z" fill="white"/>
<path d="M21.3662 21.9451V23.3749H23.6601C23.9841 23.3749 24.3081 23.6989 24.3081 24.0128C24.3081 24.3098 23.9841 24.5528 23.6601 24.5528H21.3662V26.4417C21.3662 26.7567 21.1423 26.9986 20.8273 26.9986C20.4313 26.9986 20.1895 26.7567 20.1895 26.4417V21.3319C20.1895 21.0091 20.4325 20.7739 20.8273 20.7739H23.9852C24.3812 20.7739 24.6152 21.0091 24.6152 21.3319C24.6152 21.6199 24.3812 21.9439 23.9852 21.9439H21.3662V21.9451Z" fill="white"/>
<path d="M28.125 30.375H6.75V31.5H28.125C28.7437 31.5 29.25 30.9937 29.25 30.375V29.25C29.25 29.8688 28.7437 30.375 28.125 30.375Z" fill="#CAD1D8"/>
</svg>
