<svg width="21" height="21" viewBox="0 0 21 21" fill="none" xmlns="http://www.w3.org/2000/svg">
<path d="M20.3462 0.860282C20.2576 0.778291 20.1316 0.759269 20.0248 0.811565L0.724816 10.2771C0.620912 10.328 0.554001 10.4375 0.552752 10.5584C0.551503 10.6793 0.616213 10.7902 0.719107 10.8435L6.18097 13.6729C6.28113 13.7248 6.40055 13.7131 6.49001 13.6425L11.8004 9.45295L7.63153 13.9794C7.57205 14.044 7.54172 14.1325 7.54826 14.2222L7.96335 19.9283C7.97257 20.0547 8.05286 20.1628 8.16699 20.2024C8.1975 20.213 8.22885 20.2181 8.25984 20.2181C8.34483 20.2181 8.4275 20.1797 8.48501 20.1093L11.384 16.5634L14.9677 18.3708C15.0455 18.4101 15.1356 18.4117 15.2146 18.3754C15.2937 18.3391 15.3538 18.2684 15.3797 18.1816L20.4338 1.19032C20.4691 1.07166 20.4347 0.942274 20.3462 0.860282Z" fill="#191919"/>
</svg>
