<svg width="22" height="22" viewBox="0 0 22 22" fill="none" xmlns="http://www.w3.org/2000/svg">
<g opacity="0.3">
<g clip-path="url(#clip0)">
<path d="M8.70812 17.4174C3.90668 17.4174 0 13.5107 0 8.70948C0 3.90804 3.90668 0.00135803 8.70812 0.00135803C13.5094 0.00135803 17.4161 3.90804 17.4161 8.70948C17.4161 13.5107 13.5094 17.4174 8.70812 17.4174ZM8.70812 1.37632C4.66482 1.37632 1.37496 4.66618 1.37496 8.70948C1.37496 12.7528 4.66482 16.0425 8.70812 16.0425C12.7514 16.0425 16.0411 12.7528 16.0411 8.70948C16.0411 4.66618 12.7514 1.37632 8.70812 1.37632Z" fill="#191919"/>
<path d="M21.3113 22C21.1352 22 20.9594 21.933 20.8254 21.7984L13.8957 14.8686C13.6272 14.6 13.6272 14.1646 13.8957 13.8959C14.1643 13.6274 14.5997 13.6274 14.8682 13.8959L21.7981 20.8258C22.0666 21.0943 22.0666 21.5297 21.7981 21.7984C21.6633 21.933 21.4874 22 21.3113 22Z" fill="#191919"/>
</g>
</g>
<defs>
<clipPath id="clip0">
<rect width="22" height="22" fill="white"/>
</clipPath>
</defs>
</svg>
