<svg width="17" height="17" viewBox="0 0 17 17" fill="none" xmlns="http://www.w3.org/2000/svg">
<path d="M8.5 1.0625C12.6438 1.0625 15.9375 4.35625 15.9375 8.5C15.9375 12.6438 12.6438 15.9375 8.5 15.9375C4.35625 15.9375 1.0625 12.6438 1.0625 8.5C1.0625 4.35625 4.35625 1.0625 8.5 1.0625ZM8.5 0C3.825 0 0 3.825 0 8.5C0 13.175 3.825 17 8.5 17C13.175 17 17 13.175 17 8.5C17 3.825 13.175 0 8.5 0Z" fill="#191919"/>
<path d="M8.50078 14.025C6.37578 14.025 4.46328 12.75 3.61328 10.7313L4.56953 10.3063C5.20703 11.9 6.80078 12.8563 8.50078 12.8563C10.2008 12.8563 11.7945 11.7938 12.432 10.3063L13.3883 10.7313C12.5383 12.8563 10.6258 14.025 8.50078 14.025Z" fill="#191919"/>
<path d="M7.4375 6.375C7.4375 6.9615 6.9615 7.4375 6.375 7.4375C5.7885 7.4375 5.3125 6.9615 5.3125 6.375C5.3125 5.7885 5.7885 5.3125 6.375 5.3125C6.9615 5.3125 7.4375 5.7885 7.4375 6.375Z" fill="#191919"/>
<path d="M11.6875 6.375C11.6875 6.9615 11.2115 7.4375 10.625 7.4375C10.0385 7.4375 9.5625 6.9615 9.5625 6.375C9.5625 5.7885 10.0385 5.3125 10.625 5.3125C11.2115 5.3125 11.6875 5.7885 11.6875 6.375Z" fill="#191919"/>
</svg>
