<svg width="36" height="36" viewBox="0 0 36 36" fill="none" xmlns="http://www.w3.org/2000/svg">
<path d="M9 0C7.7625 0 6.75 1.0125 6.75 2.25V33.75C6.75 34.9875 7.7625 36 9 36H31.5C32.7375 36 33.75 34.9875 33.75 33.75V9L24.75 0H9Z" fill="#E2E5E7"/>
<path d="M27 9H33.75L24.75 0V6.75C24.75 7.9875 25.7625 9 27 9Z" fill="#B0B7BD"/>
<path d="M33.75 15.75L27 9H33.75V15.75Z" fill="#CAD1D8"/>
<path d="M29.25 29.25C29.25 29.8687 28.7437 30.375 28.125 30.375H3.375C2.75625 30.375 2.25 29.8687 2.25 29.25V18C2.25 17.3812 2.75625 16.875 3.375 16.875H28.125C28.7437 16.875 29.25 17.3812 29.25 18V29.25Z" fill="#576D7E"/>
<path d="M9.33691 21.9004H7.76303C6.98003 21.9004 6.98003 20.7495 7.76303 20.7495H12.0178C12.8188 20.7495 12.8188 21.9004 12.0178 21.9004H10.5238V26.442C10.5238 27.2239 9.33578 27.243 9.33578 26.442V21.9004H9.33691Z" fill="white"/>
<path d="M15.7795 22.9341L17.3455 20.9732C17.8135 20.3623 18.7214 21.1442 18.2095 21.7292C17.6695 22.3682 17.1036 23.0612 16.5625 23.77L18.3985 26.0548C18.8924 26.7298 17.9035 27.3778 17.4175 26.7118L15.7626 24.589L14.1347 26.7568C13.6757 27.4127 12.6587 26.6758 13.1728 26.0638L14.9796 23.77C14.4137 23.0601 13.8647 22.3682 13.3157 21.7292C12.7487 21.0542 13.8017 20.3623 14.2146 20.9923L15.7795 22.9341Z" fill="white"/>
<path d="M20.9735 21.9004H19.4007C18.6177 21.9004 18.6177 20.7495 19.4007 20.7495H23.6544C24.4554 20.7495 24.4554 21.9004 23.6544 21.9004H22.1615V26.442C22.1615 27.2239 20.9735 27.243 20.9735 26.442V21.9004Z" fill="white"/>
<path d="M28.125 30.375H6.75V31.5H28.125C28.7437 31.5 29.25 30.9937 29.25 30.375V29.25C29.25 29.8688 28.7437 30.375 28.125 30.375Z" fill="#CAD1D8"/>
</svg>
