<svg width="55" height="55" viewBox="0 0 55 55" fill="none" xmlns="http://www.w3.org/2000/svg">
<path d="M26.4617 29.1121L20.6788 27.3773V25.0349C22.816 23.4524 24.2619 20.9869 24.4672 18.1809C25.5835 17.8449 26.399 16.8073 26.399 15.5829C26.399 14.7903 26.0428 14.0391 25.4457 13.5284V7.95593C25.4457 6.42818 24.6719 4.99915 23.4038 4.14278C22.9798 2.54993 21.5511 1.43005 19.873 1.43005H12.2461C8.12195 1.43005 4.76685 4.78516 4.76685 8.9093V13.5284C4.16969 14.0391 3.81348 14.7902 3.81348 15.5829C3.81348 16.8073 4.62902 17.8449 5.74535 18.1809C5.95063 20.9869 7.39643 23.4524 9.53369 25.0349V27.3773L2.61239 29.4536C1.04983 29.9224 0 31.3334 0 32.9648V42.2772C0 42.7222 0.360723 43.0829 0.805664 43.0829H0.953369V52.7643C0.953369 53.2092 1.31409 53.57 1.75903 53.57C2.20397 53.57 2.5647 53.2092 2.5647 52.7643V43.0829H5.72021V52.7643C5.72021 53.2092 6.08094 53.57 6.52588 53.57C6.97082 53.57 7.33154 53.2092 7.33154 52.7643V37.5104C7.33154 37.3852 7.30243 37.2619 7.24646 37.1501L5.33973 33.3366C5.14078 32.9386 4.65695 32.7773 4.25885 32.9763C3.86085 33.1753 3.6995 33.6592 3.89855 34.0572L5.72021 37.7006V41.4716H1.75903H1.61133V32.9648C1.61133 32.0506 2.19978 31.2597 3.07549 30.997L5.96868 30.129C6.95224 34.3082 10.7374 37.3626 15.1063 37.3626C17.3526 37.3626 19.5262 36.5566 21.2266 35.093C22.7367 33.7932 23.7902 32.0491 24.242 30.1283L25.9986 30.6555C26.0758 30.6787 26.1537 30.6896 26.2304 30.6896C26.5769 30.6896 26.897 30.4643 27.0018 30.1152C27.1296 29.6891 26.8878 29.24 26.4617 29.1121ZM7.33154 17.4896C7.33154 17.0447 6.97082 16.684 6.52588 16.684C5.91873 16.684 5.4248 16.19 5.4248 15.5829C5.4248 15.1921 5.63148 14.8385 5.97771 14.6369C5.99554 14.6265 6.01176 14.6143 6.02862 14.6027C6.18191 14.5248 6.35196 14.4818 6.52588 14.4818H7.74544C8.50384 14.4818 9.17447 13.9984 9.41424 13.279L9.96929 11.614C11.8633 11.5722 17.8326 11.3071 21.1867 9.62989C21.5847 9.43094 21.7461 8.94701 21.547 8.54901C21.3481 8.15101 20.8642 7.98966 20.4661 8.18872C16.8685 9.9875 9.46032 10.0104 9.38588 10.0104C9.03912 10.0105 8.73125 10.2323 8.62168 10.5612L7.88562 12.7695C7.86543 12.8299 7.80925 12.8705 7.74544 12.8705H6.52588C6.47657 12.8705 6.42737 12.8726 6.37817 12.8753V8.9093C6.37817 5.67376 9.01055 3.04138 12.2461 3.04138H19.873C20.8837 3.04138 21.7328 3.7697 21.8921 4.77313C21.9307 5.0159 22.078 5.22785 22.2921 5.34859C23.2433 5.88505 23.8341 6.88408 23.8341 7.95593V13.9406C23.8341 14.2274 23.9867 14.4927 24.2346 14.6369C24.5808 14.8385 24.7875 15.1921 24.7875 15.5829C24.7875 16.19 24.2936 16.684 23.6864 16.684C23.2415 16.684 22.8808 17.0447 22.8808 17.4896C22.8808 21.7766 19.3931 25.2643 15.1061 25.2643C10.8191 25.2643 7.33154 21.7765 7.33154 17.4896ZM19.0674 25.9967V27.9767C19.0674 30.1609 17.2904 31.9379 15.1062 31.9379C12.9254 31.9379 11.1509 30.1665 11.1452 27.987C11.1452 27.9831 11.145 27.9793 11.145 27.9755V25.9967C12.3493 26.5597 13.6913 26.8756 15.1062 26.8756C16.5211 26.8756 17.8631 26.5598 19.0674 25.9967ZM20.1752 33.8718C18.7671 35.0838 16.9669 35.7513 15.1062 35.7513C11.4539 35.7513 8.29555 33.1746 7.51695 29.6646L9.63478 29.0293C10.1284 31.6002 12.3935 33.5492 15.1062 33.5492C17.819 33.5492 20.084 31.6002 20.5776 29.0292L22.6953 29.6646C22.3343 31.2923 21.4517 32.7732 20.1752 33.8718Z" fill="#191919"/>
<path d="M52.6957 36.0432L46.1584 33.4282C46.1029 33.406 46.05 33.3795 46 33.3495C50.4277 32.4579 52.5013 31.6199 52.593 31.5823C52.9297 31.4444 53.1321 31.0978 53.087 30.7368C53.0776 30.6609 52.1399 23.0838 52.1399 16.5361C52.1399 10.3093 47.074 5.24341 40.8472 5.24341C34.6204 5.24341 29.5544 10.3094 29.5544 16.5363C29.5544 23.0809 28.6168 30.6611 28.6073 30.737C28.5622 31.098 28.7646 31.4445 29.1013 31.5825C29.1931 31.6201 31.2666 32.458 35.6944 33.3497C35.6443 33.3797 35.5914 33.4062 35.5359 33.4284L28.9987 36.0433C27.5989 36.6032 26.6944 37.9392 26.6944 39.4468V41.4716H24.4922V37.7007L26.3138 34.0573C26.5129 33.6593 26.3516 33.1754 25.9536 32.9764C25.5556 32.7774 25.0716 32.9387 24.8727 33.3367L22.9659 37.1502C22.91 37.2621 22.8809 37.3853 22.8809 37.5105V52.7644C22.8809 53.2093 23.2416 53.57 23.6865 53.57C24.1315 53.57 24.4922 53.2093 24.4922 52.7644V43.083H26.6943V44.1845C26.6943 44.3982 26.7793 44.6032 26.9304 44.7544C27.0815 44.9054 27.2863 44.9901 27.5 44.9901C27.5001 44.9901 27.5002 44.9901 27.5004 44.9901H27.6477V52.7644C27.6477 53.2093 28.0084 53.57 28.4534 53.57C28.8983 53.57 29.259 53.2093 29.259 52.7644V44.9897H31.4612V52.7644C31.4612 53.2093 31.8219 53.57 32.2668 53.57C32.7118 53.57 33.0725 53.2093 33.0725 52.7644V42.2773C33.0725 41.8324 32.7118 41.4716 32.2668 41.4716C31.8219 41.4716 31.4612 41.8324 31.4612 42.2773V43.3784H28.3057V39.4467C28.3057 38.6018 28.8126 37.853 29.5971 37.5393L32.8108 36.2537C33.915 39.7357 37.1542 42.1295 40.8472 42.1295C44.5401 42.1295 47.7793 39.7356 48.8835 36.2537L52.0972 37.5393C52.8817 37.853 53.3887 38.6019 53.3887 39.4467V43.3784H50.2332V42.2773C50.2332 41.8324 49.8724 41.4716 49.4275 41.4716C48.9825 41.4716 48.6218 41.8324 48.6218 42.2773V52.7644C48.6218 53.2093 48.9825 53.57 49.4275 53.57C49.8724 53.57 50.2332 53.2093 50.2332 52.7644V44.9897H52.4353V52.7644C52.4353 53.2093 52.796 53.57 53.241 53.57C53.6859 53.57 54.0466 53.2093 54.0466 52.7644V44.9897H54.1943C54.6393 44.9897 55 44.629 55 44.184V39.4467C55 37.9391 54.0955 36.6032 52.6957 36.0432ZM31.1657 16.5362C31.1658 11.1978 35.5088 6.85484 40.8472 6.85484C46.1855 6.85484 50.5286 11.1979 50.5286 16.5362C50.5286 22.0674 51.1864 28.3121 51.4128 30.2968C50.5202 30.6 48.5668 31.1976 45.4663 31.8129V30.4259C45.9136 30.1734 46.3415 29.8846 46.7436 29.5595C48.3806 28.2364 49.5372 26.3833 50.0005 24.3417C50.1548 23.6614 50.2332 22.9599 50.2332 22.2565C50.2332 17.5637 46.834 16.8889 43.5469 16.2363C41.4446 15.819 39.2709 15.3874 37.537 14.0003C37.3474 13.8485 37.099 13.791 36.8617 13.8429C36.6244 13.8946 36.4229 14.0511 36.3135 14.2681C36.309 14.277 35.8576 15.1656 35.0942 16.0309C34.4476 16.7638 33.4322 17.6373 32.2667 17.6373C31.8701 17.6373 31.4934 17.7236 31.1535 17.8773C31.1614 17.4275 31.1657 16.9796 31.1657 16.5362ZM40.8472 30.0312C39.0483 30.0312 37.3596 29.4347 35.9637 28.3063C34.607 27.2098 33.6487 25.6752 33.2651 23.9851C33.1373 23.4217 33.0725 22.84 33.0725 22.2565C33.0725 21.8115 32.7118 21.4508 32.2668 21.4508C31.6597 21.4508 31.1658 20.9569 31.1658 20.3497C31.1658 19.7426 31.6597 19.2486 32.2668 19.2486C34.7099 19.2486 36.482 17.0364 37.2822 15.7987C39.1611 17.0084 41.31 17.435 43.2331 17.8169C46.7741 18.5199 48.6218 19.0366 48.6218 22.2566C48.6218 22.8402 48.5569 23.4218 48.4292 23.9852C48.0457 25.6753 47.0873 27.2099 45.7307 28.3065C44.3347 29.4348 42.6461 30.0312 40.8472 30.0312ZM30.2816 30.2968C30.4241 29.0466 30.7379 26.1061 30.9506 22.7187C31.1194 22.8128 31.2981 22.891 31.4864 22.9477C31.5208 23.418 31.5901 23.8846 31.6939 24.3417C32.1572 26.3833 33.3139 28.2364 34.9508 29.5595C35.3529 29.8846 35.7807 30.1734 36.228 30.4259V31.8129C33.127 31.1975 31.1736 30.5999 30.2816 30.2968ZM40.8472 40.5183C37.82 40.5183 35.1691 38.5309 34.311 35.6538L36.1342 34.9245C37.17 34.5102 37.8394 33.5217 37.8394 32.4061V31.1444C38.8029 31.4703 39.8194 31.6427 40.8472 31.6427C41.875 31.6427 42.8914 31.4703 43.855 31.1444V32.4061C43.855 33.5217 44.5242 34.5102 45.56 34.9245L47.3834 35.6539C46.5253 38.5307 43.8744 40.5183 40.8472 40.5183Z" fill="#191919"/>
</svg>
