<svg width="55" height="55" viewBox="0 0 55 55" fill="none" xmlns="http://www.w3.org/2000/svg">
<path d="M49.6565 43.2672C49.0612 39.6931 46.5552 36.7603 43.1168 35.6142L35.4842 33.07V31.9354H33.71V33.2457C32.7671 33.8728 30.0925 35.4838 27.5004 35.4838C24.9083 35.4838 22.2337 33.8728 21.2907 33.2457V31.9354H19.5165V33.07L11.8839 35.6142C8.44641 36.7603 5.94036 39.6931 5.34423 43.2672L3.38818 54.9999H51.6116L49.6565 43.2672ZM20.2608 34.6925C21.3155 35.4049 24.3618 37.258 27.5004 37.258C30.6389 37.258 33.6852 35.4049 34.74 34.6925L36.2808 35.2062L27.5004 43.9875L18.719 35.2062L20.2608 34.6925ZM26.6133 53.2257H13.4L14.1895 45.3306L12.4242 45.1541L11.6169 53.2266H5.48351L7.09447 43.5608C7.58149 40.6361 9.63246 38.2374 12.4454 37.2988L12.8464 37.1649L26.6133 50.9317V53.2257ZM14.7271 36.5368L16.8375 35.8333L27.5004 46.4962L38.1633 35.8333L40.2737 36.5368L27.5004 49.3101L14.7271 36.5368ZM43.3838 53.2257L42.5766 45.1532L40.8112 45.3297L41.6008 53.2249H28.3875V50.9308L42.1552 37.1631L42.5562 37.297C45.3691 38.2347 47.4192 40.6343 47.9071 43.5591L49.5172 53.2257H43.3838Z" fill="#191919"/>
<path d="M11.5325 19.5161C11.5325 18.3611 10.7883 17.3853 9.75835 17.0181V9.7075L14.1938 12.8753V15.9899C13.1231 16.8007 12.4196 18.0728 12.4196 19.5152C12.4196 21.7915 14.1495 23.6509 16.3601 23.9011C16.8125 25.4579 17.6482 26.8852 18.8262 28.0633L22.2859 31.523C23.1233 32.3613 24.2367 32.8226 25.4218 32.8226H29.5796C30.7639 32.8226 31.8781 32.3613 32.7155 31.5239L36.1752 28.0642C37.3533 26.8861 38.1889 25.4579 38.6413 23.9019C40.8511 23.6518 42.5809 21.7924 42.5809 19.5161C42.5809 18.0728 41.8775 16.8007 40.8067 15.9908V12.8762L47.0164 8.44073V5.55944L29.5415 0.0408065L25.7261 0L7.98415 5.55944V7.98387V8.44073V17.019C6.95423 17.3853 6.20996 18.3611 6.20996 19.5161V23.0645H11.5325V19.5161ZM14.1938 19.5161C14.1938 18.3611 14.9381 17.3853 15.968 17.0181V21.1644C15.968 21.4544 15.9849 21.7419 16.0097 22.0275C14.9585 21.6718 14.1938 20.6862 14.1938 19.5161ZM37.2583 21.1644C37.2583 23.2969 36.428 25.3018 34.92 26.8098L31.4603 30.2695C30.9653 30.7645 30.2796 31.0484 29.5787 31.0484H25.4209C24.7201 31.0484 24.0353 30.7645 23.5394 30.2695L20.0797 26.8098C18.5717 25.3018 17.7413 23.2969 17.7413 21.1644V16.1806C19.9192 15.6856 23.4108 15.0806 27.5003 15.0806C31.5827 15.0806 35.0787 15.6865 37.2583 16.1815V21.1644ZM27.5003 13.3065C22.2185 13.3065 17.9392 14.2565 15.968 14.7852V13.0794C17.5355 12.6349 21.9825 11.5323 27.5003 11.5323C33.0047 11.5323 37.4624 12.6358 39.0325 13.0794V14.7844C37.0614 14.2565 32.7821 13.3065 27.5003 13.3065ZM38.9908 22.0266C39.0157 21.7419 39.0325 21.4544 39.0325 21.1644V17.0181C40.0625 17.3853 40.8067 18.3611 40.8067 19.5161C40.8067 20.6862 40.0421 21.6718 38.9908 22.0266ZM9.75835 6.85992L25.8627 1.77419H29.137L45.2422 6.85992V7.52702L39.7617 11.4418C38.3433 11.0204 33.5946 9.75807 27.5003 9.75807C21.4059 9.75807 16.6573 11.0204 15.2388 11.4418L9.75835 7.52702V6.85992ZM9.75835 21.2903H7.98415V19.5161C7.98415 19.0273 8.38246 18.629 8.87125 18.629C9.36004 18.629 9.75835 19.0273 9.75835 19.5161V21.2903Z" fill="#191919"/>
<path d="M11.5325 24.8387H9.7583V30.1613H11.5325V24.8387Z" fill="#191919"/>
<path d="M7.98415 24.8387H6.20996V30.1613H7.98415V24.8387Z" fill="#191919"/>
</svg>
