<svg width="55" height="55" viewBox="0 0 55 55" fill="none" xmlns="http://www.w3.org/2000/svg">
<path d="M47.2657 51.1953C44.8153 38.8912 44.9213 39.415 44.9092 39.3645C44.5879 37.8092 43.6845 36.5179 42.2199 35.7089C41.5349 35.3296 41.1399 35.2705 40.7946 35.1577L34.7745 33.0667L32.7682 31.6907V30.1298C35.7021 28.3869 37.57 25.3852 37.9115 22.137C40.3631 22.2507 42.0719 19.9074 41.044 17.8558V11.2881C41.044 6.53854 38.4609 4.88618 37.6717 4.49237C33.8102 -0.117417 26.5995 -1.2997 21.1333 1.50519L21.1227 1.51045C21.029 1.56556 19.9024 2.08677 18.5152 3.24671C18.1786 3.53782 18.1418 4.04657 18.4328 4.38312C18.7243 4.7201 19.2332 4.75609 19.5692 4.46551C24.9227 -0.0296538 32.8687 1.12545 36.542 5.65489C36.6325 5.76628 36.7426 5.84846 36.877 5.89873C36.9814 5.94063 39.4328 6.97231 39.4328 11.2881V16.3728C38.9858 16.1835 38.4957 16.0865 37.9734 16.1011V13.4659C37.9734 12.7975 37.4699 12.245 36.8021 12.1805C35.4482 12.0498 34.6896 11.1677 34.2915 10.4508C33.7932 9.55354 32.6039 9.33859 31.824 10.005C28.2317 13.0757 24.0955 13.2317 21.2583 12.8225C19.1151 12.5131 17.1218 13.9729 16.775 16.1022C16.2533 16.0796 15.7379 16.172 15.2641 16.3727C15.2672 13.5989 14.9472 10.581 17.2157 7.1228C17.4591 6.75026 17.3544 6.25108 16.9819 6.00766C16.6094 5.76413 16.1101 5.86866 15.8667 6.24141C12.7794 10.972 13.884 15.2109 13.6526 17.8557C12.6253 19.9065 14.3318 22.2507 16.7851 22.1368C17.1855 25.9624 19.5421 28.1632 19.5981 28.259L19.5982 28.2591C20.0165 28.6601 20.7677 29.4978 22.232 30.3048V31.6904L20.2259 33.0663C12.3745 35.7936 13.1714 35.4627 12.5335 35.8524C11.3279 36.595 10.4923 37.7308 10.144 39.1292C10.0754 39.4056 10.1894 38.8833 7.73446 51.195C7.68504 51.4437 7.65905 51.9285 7.70341 52.3396C7.88539 54.0303 9.08443 54.9999 10.9931 54.9999H33.131C33.576 54.9999 33.9366 54.6393 33.9366 54.1942C33.9366 53.7492 33.576 53.3886 33.131 53.3886H16.6587V46.0068C16.6587 45.5617 16.298 45.2011 15.8531 45.2011C15.4081 45.2011 15.0474 45.5617 15.0474 46.0068V53.3887H10.9929C9.72971 53.3887 9.13653 52.8468 9.31936 51.4866C11.524 40.7139 11.5287 39.8446 11.8893 38.9619C11.9522 38.874 12.2996 37.6309 14.0028 36.9078C14.1789 36.8356 14.0691 36.884 14.6748 36.6994C14.7121 36.6887 14.5275 36.7514 17.4209 35.7468L19.3507 39.3093C19.5627 39.7006 20.0514 39.8461 20.4429 39.634C20.8341 39.422 20.9794 38.933 20.7675 38.5418L18.9632 35.211L20.1971 34.7824C20.7919 35.8804 26.0582 45.6018 26.6307 46.6584C26.984 47.3128 27.8835 47.3455 28.298 46.774C28.3731 46.6705 27.9441 47.4405 34.7928 34.7787L36.0264 35.2072L29.5043 47.2717C28.6445 48.862 26.3587 48.8621 25.4978 47.2734L22.5584 41.8473C22.3464 41.4561 21.8576 41.3104 21.4663 41.5227C21.075 41.7347 20.9297 42.2236 21.1416 42.6148L24.0811 48.041C25.5514 50.7546 29.4545 50.7521 30.9217 48.038L37.5685 35.7429C40.4554 36.7453 40.2861 36.688 40.3235 36.6988C40.8914 36.8718 40.8283 36.8385 40.9955 36.907C41.6116 37.1694 41.9793 37.4722 41.9686 37.4643C42.6003 37.9738 43.0359 38.5624 43.2686 39.4292C43.3067 39.5667 45.6985 51.4252 45.7082 51.8254C45.7322 52.8368 45.2954 53.3887 44.0076 53.3887H39.9528V46.0068C39.9528 45.5617 39.5922 45.2011 39.1471 45.2011C38.7021 45.2011 38.3415 45.5617 38.3415 46.0068V53.3887H36.8903C36.4453 53.3887 36.0846 53.7493 36.0846 54.1943C36.0846 54.6394 36.4453 55 36.8903 55H44.0073C45.916 55 47.1149 54.0304 47.2967 52.3407C47.3406 51.9375 47.3148 51.4424 47.2657 51.1953ZM37.9733 17.713C38.9024 17.6639 39.734 18.2897 39.734 19.1199C39.734 19.9583 38.8934 20.5755 37.9733 20.5269V17.713ZM16.7234 20.5269C15.7944 20.5761 14.9628 19.9501 14.9628 19.12C14.9628 18.2816 15.8033 17.6643 16.7234 17.713V20.5269ZM21.028 14.4173C24.1949 14.8744 28.8201 14.6925 32.8707 11.2299L32.8826 11.233C33.6608 12.6343 34.8886 13.5189 36.362 13.7484V16.6014L35.4427 17.144C35.0641 16.5985 34.4342 16.2399 33.7216 16.2399H30.0348C29.1652 16.2399 28.4182 16.7728 28.1018 17.529H26.5949C26.2786 16.7728 25.5314 16.2399 24.6619 16.2399H20.975C20.2623 16.2399 19.6323 16.5985 19.2539 17.144L18.3388 16.6037C18.4181 15.2265 19.6631 14.2198 21.028 14.4173ZM34.205 18.3346V19.9391C34.205 20.638 33.6364 21.2064 32.9375 21.2064H30.8186C30.1198 21.2064 29.5513 20.6378 29.5513 19.9391V18.3346H29.5514C29.5514 18.0726 29.7728 17.8512 30.0348 17.8512H33.7216C33.9836 17.8512 34.205 18.0726 34.205 18.3346ZM25.1453 18.3346V19.9391C25.1453 20.638 24.5768 21.2064 23.8779 21.2064H21.759C21.0601 21.2064 20.4916 20.6378 20.4916 19.9391V18.3346C20.4916 18.0726 20.713 17.8512 20.975 17.8512H24.6619C24.9239 17.8512 25.1453 18.0726 25.1453 18.3346ZM20.5074 26.8605C17.9 23.8213 18.4026 20.8703 18.3347 18.4724L18.8805 18.7946V19.9391C18.8805 21.5263 20.1718 22.8178 21.7591 22.8178H23.878C25.4653 22.8178 26.7566 21.5264 26.7566 19.9391V19.1402H27.9405V19.9391C27.9405 21.5263 29.2318 22.8178 30.8191 22.8178H32.9379C34.5252 22.8178 35.8166 21.5264 35.8166 19.9391V18.7946L36.3624 18.4724V20.9916C36.3624 25.7835 32.5698 29.9469 27.3487 30.0043C27.3378 30.0042 27.2293 30.0034 27.2401 30.0035C25.8474 29.9894 24.7771 29.6325 24.8854 29.6629C23.3045 29.2244 21.7967 28.3192 20.5074 26.8605ZM27.5002 35.8738L23.8433 31.8047V31.0233C25.525 31.6073 27.269 31.7416 28.8929 31.5048C29.346 31.439 29.8337 31.331 30.119 31.2505C30.1868 31.2284 30.5757 31.1354 31.157 30.9118V31.8048L27.5002 35.8738ZM28.4075 38.7449L28.0515 39.478H26.9489L26.5928 38.7449L27.5002 38.0785L28.4075 38.7449ZM25.377 40.9617L24.8639 40.0147L25.2726 39.7146L25.5779 40.3435L25.377 40.9617ZM24.0948 38.5806L21.647 34.0526L22.9129 33.1795L26.3067 36.9561C26.1107 37.0998 24.2873 38.4391 24.0948 38.5806ZM27.4999 44.8804L26.4358 42.9161L27.0299 41.0892H27.9709L28.5638 42.9129C28.2265 43.5364 27.9134 44.1156 27.4999 44.8804ZM29.6216 40.9558L29.4225 40.3433L29.7279 39.7144L30.1321 40.0113L29.6216 40.9558ZM30.9057 38.5806C30.6964 38.4269 28.9462 37.1414 28.6939 36.9561L32.0877 33.1795L33.3537 34.0526C32.5406 35.5562 31.4333 37.6045 30.9057 38.5806Z" fill="#191919"/>
</svg>
