<svg width="155" height="70" viewBox="0 0 155 70" fill="none" xmlns="http://www.w3.org/2000/svg">
<path d="M54.4964 42.1242V27.8759H61.1805C61.9621 27.8759 62.6359 27.9838 63.2288 28.2267C63.8217 28.4696 64.3338 28.7934 64.7381 29.2252C65.1424 29.6569 65.4389 30.1427 65.6545 30.6824C65.8701 31.2491 65.9509 31.8157 65.9509 32.4634C65.9509 33.0841 65.8431 33.6777 65.6275 34.2444C65.4119 34.8111 65.1154 35.2969 64.6842 35.7016C64.2799 36.1064 63.7678 36.4572 63.1749 36.7001C62.582 36.943 61.9082 37.0779 61.1266 37.0779H57.4881V42.1511H54.4964V42.1242ZM60.7492 34.3794C61.3422 34.3794 61.8543 34.2174 62.2316 33.8666C62.6359 33.5158 62.8245 33.0571 62.8245 32.4634C62.8245 31.8697 62.6359 31.384 62.2316 31.0602C61.8273 30.7093 61.3422 30.5474 60.7492 30.5474H57.515V34.3794H60.7492Z" fill="#191919"/>
<path d="M75.8692 42.1242L73.0662 37.0509H70.8561V42.1242H67.8375V27.8759H74.4946C75.2223 27.8759 75.8961 27.9838 76.489 28.2267C77.082 28.4426 77.5941 28.7664 77.9983 29.1982C78.4026 29.6029 78.726 30.0887 78.9417 30.6554C79.1573 31.2221 79.2651 31.8157 79.2651 32.4904C79.2651 33.111 79.1842 33.6777 78.9956 34.1635C78.8069 34.6492 78.5643 35.054 78.2679 35.4048C77.9714 35.7556 77.621 36.0255 77.2706 36.2683C76.8933 36.4842 76.516 36.6461 76.1387 36.7271L79.3459 42.1511H75.8692V42.1242ZM74.0095 34.3794C74.6294 34.3794 75.1415 34.2174 75.5457 33.8666C75.95 33.5158 76.1656 33.0571 76.1656 32.4634C76.1656 31.8697 75.95 31.384 75.5457 31.0602C75.1415 30.7363 74.6294 30.5474 74.0095 30.5474H70.8292V34.3794H74.0095Z" fill="#191919"/>
<path d="M88.2673 42.367C87.1892 42.367 86.2189 42.1781 85.3026 41.8273C84.3862 41.4765 83.6046 40.9638 82.9578 40.2891C82.284 39.6415 81.7719 38.8589 81.4215 37.9414C81.0442 37.0239 80.8555 36.0524 80.8555 34.973C80.8555 33.8936 81.0442 32.9221 81.4215 32.0046C81.7988 31.0871 82.3109 30.3315 82.9578 29.6569C83.6316 29.0093 84.4132 28.4965 85.3026 28.1187C86.2189 27.7679 87.1892 27.579 88.2673 27.579C89.3454 27.579 90.3426 27.7679 91.2589 28.1187C92.1753 28.4696 92.9569 28.9823 93.6037 29.6569C94.2775 30.3046 94.7896 31.0871 95.14 32.0046C95.5173 32.9221 95.706 33.8936 95.706 34.973C95.706 36.0524 95.5173 37.0239 95.14 37.9414C94.7627 38.8589 94.2506 39.6145 93.6037 40.2891C92.9299 40.9368 92.1484 41.4495 91.2589 41.8273C90.3426 42.1781 89.3454 42.367 88.2673 42.367ZM88.2673 39.6685C88.9141 39.6685 89.5071 39.5605 90.0461 39.3177C90.5851 39.0748 91.0433 38.751 91.4207 38.3462C91.798 37.9414 92.0944 37.4287 92.2831 36.862C92.4987 36.2953 92.5796 35.6746 92.5796 35C92.5796 34.3254 92.4718 33.7047 92.2831 33.138C92.0675 32.5713 91.798 32.0856 91.4207 31.6538C91.0433 31.2221 90.5851 30.8982 90.0461 30.6824C89.5071 30.4395 88.9141 30.3315 88.2673 30.3315C87.6204 30.3315 87.0275 30.4395 86.4885 30.6824C85.9494 30.9252 85.4912 31.249 85.1409 31.6538C84.7635 32.0856 84.494 32.5713 84.2784 33.138C84.0628 33.7047 83.9819 34.3254 83.9819 35C83.9819 35.6746 84.0898 36.2953 84.2784 36.862C84.494 37.4287 84.7635 37.9144 85.1409 38.3462C85.5182 38.751 85.9494 39.0748 86.4885 39.3177C87.0275 39.5605 87.6204 39.6685 88.2673 39.6685Z" fill="#191919"/>
<path d="M104.735 42.367C103.657 42.367 102.66 42.1781 101.743 41.8273C100.827 41.4765 100.018 40.9638 99.3445 40.3161C98.6707 39.6685 98.1317 38.8859 97.7544 37.9954C97.3501 37.0779 97.1614 36.0794 97.1614 35C97.1614 33.8936 97.3501 32.8952 97.7544 32.0046C98.1587 31.0871 98.6707 30.3315 99.3445 29.6839C100.018 29.0362 100.827 28.5235 101.743 28.1727C102.66 27.8219 103.657 27.633 104.735 27.633C105.517 27.633 106.217 27.741 106.837 27.9298C107.457 28.1187 108.023 28.3886 108.508 28.7124C108.993 29.0362 109.398 29.414 109.775 29.8188C110.125 30.2506 110.449 30.6824 110.691 31.1141L108.077 32.3824C107.78 31.7888 107.322 31.303 106.729 30.8982C106.136 30.4935 105.463 30.3046 104.735 30.3046C104.088 30.3046 103.495 30.4125 102.956 30.6554C102.417 30.8982 101.932 31.2221 101.528 31.6268C101.123 32.0586 100.827 32.5443 100.611 33.111C100.396 33.6777 100.288 34.2984 100.288 34.973C100.288 35.6477 100.396 36.2683 100.611 36.835C100.827 37.4017 101.15 37.9144 101.528 38.3192C101.932 38.724 102.39 39.0478 102.956 39.2907C103.495 39.5335 104.088 39.6415 104.735 39.6415C105.463 39.6415 106.136 39.4526 106.729 39.0478C107.322 38.643 107.78 38.1573 108.077 37.5636L110.691 38.8319C110.422 39.2637 110.125 39.6955 109.775 40.1272C109.425 40.559 108.993 40.9098 108.508 41.2606C108.023 41.5844 107.457 41.8543 106.837 42.0432C106.217 42.2321 105.517 42.367 104.735 42.367Z" fill="#191919"/>
<path d="M120.96 42.1242L116.648 36.4302L115.543 37.7525V42.1242H112.524V27.8759H115.543V34.2444L120.583 27.8759H124.329L118.669 34.5683L124.706 42.1242H120.96Z" fill="#191919"/>
<path d="M126.081 42.1242V27.8759H136.161V30.5474H129.1V33.5698H135.999V36.2413H129.1V39.4796H136.134V42.1511H126.081V42.1242Z" fill="#191919"/>
<path d="M141.793 42.1242V30.5474H137.643V27.8759H148.963V30.5474H144.812V42.1242H141.793Z" fill="#191919"/>
<path d="M22.9626 63.5775C21.642 63.5775 20.3214 63.1457 19.2433 62.2822C17.9226 61.2028 17.0871 59.6376 17.0063 57.9375C16.9254 56.2375 17.5453 54.5914 18.7582 53.377C19.0277 53.1072 19.4589 53.1072 19.7015 53.377C19.971 53.6469 19.971 54.0786 19.7015 54.3215C18.7851 55.239 18.273 56.5343 18.3539 57.8566C18.4347 59.1789 19.0546 60.3932 20.1057 61.2298C21.7768 62.552 24.1755 62.552 25.8465 61.2298C26.8976 60.3932 27.5175 59.2059 27.5984 57.8566C27.6792 56.5343 27.1671 55.266 26.2508 54.3215C25.9812 54.0517 25.9812 53.6199 26.2508 53.377C26.5203 53.1072 26.9515 53.1072 27.1941 53.377C28.38 54.5644 29.0268 56.2375 28.946 57.9375C28.8651 59.6376 28.0296 61.2028 26.7089 62.2822C25.6039 63.1457 24.2833 63.5775 22.9626 63.5775Z" fill="#191919"/>
<path d="M20.5375 53.9437C19.5403 53.9437 18.5161 53.5929 17.7345 52.8643C16.899 52.0817 16.4408 51.0563 16.4138 49.9229C16.3869 48.7895 16.8181 47.7371 17.6267 46.9275C17.8962 46.6576 18.3274 46.6576 18.57 46.9275C18.8395 47.1974 18.8395 47.6291 18.57 47.872C18.031 48.4117 17.7345 49.1133 17.7614 49.8689C17.7884 50.6245 18.0849 51.3261 18.6508 51.8388C19.675 52.8103 21.373 52.8103 22.3971 51.8388C22.9631 51.3261 23.2596 50.6245 23.2866 49.8689C23.3135 49.1133 23.017 48.3847 22.478 47.872C22.2085 47.6021 22.2085 47.1704 22.478 46.9275C22.7475 46.6576 23.1787 46.6576 23.4213 46.9275C24.2299 47.7371 24.6341 48.7895 24.6341 49.9229C24.6072 51.0563 24.149 52.1087 23.3135 52.8643C22.5319 53.5929 21.5347 53.9437 20.5375 53.9437Z" fill="#191919"/>
<path d="M27.3286 54.3485C26.4931 54.3485 25.6576 54.0517 25.0108 53.431C24.337 52.8103 23.9597 51.9468 23.9597 51.0293C23.9597 50.1118 24.31 49.2483 24.9569 48.6006C25.2264 48.3308 25.6576 48.3308 25.9002 48.6006C26.1697 48.8705 26.1697 49.3022 25.9002 49.5451C25.5229 49.9229 25.3072 50.4626 25.3072 51.0023C25.3072 51.542 25.5498 52.0547 25.9541 52.4595C26.7087 53.1881 27.9755 53.1881 28.7301 52.4595C29.1344 52.0817 29.35 51.569 29.377 51.0023C29.377 50.4626 29.1614 49.9229 28.784 49.5451C28.5145 49.2752 28.5145 48.8435 28.784 48.6006C29.0535 48.3308 29.4848 48.3308 29.7273 48.6006C30.3742 49.2483 30.7246 50.1118 30.7246 51.0293C30.7246 51.9468 30.3472 52.8103 29.6734 53.431C28.9996 54.0247 28.1641 54.3485 27.3286 54.3485Z" fill="#191919"/>
<path d="M25.0115 49.2483C24.4455 49.2483 23.9065 49.0863 23.4213 48.7625C22.6936 48.2768 22.2355 47.4942 22.1546 46.6307C22.0737 45.7671 22.3702 44.9306 22.9901 44.3099C23.2596 44.0401 23.6909 44.0401 23.9334 44.3099C24.2029 44.5798 24.2029 45.0116 23.9334 45.2544C23.61 45.5782 23.4483 46.037 23.5022 46.4958C23.5561 46.9545 23.7987 47.3593 24.176 47.6291C24.6881 47.9799 25.3619 47.9799 25.847 47.6291C26.2513 47.3593 26.4939 46.9545 26.5208 46.4958C26.5747 46.037 26.413 45.5782 26.0896 45.2544C25.8201 44.9846 25.8201 44.5528 26.0896 44.3099C26.3591 44.0401 26.7903 44.0401 27.0329 44.3099C27.6528 44.9306 27.9493 45.7671 27.8684 46.6307C27.7875 47.4942 27.3294 48.2768 26.6017 48.7625C26.1165 49.0863 25.5775 49.2483 25.0115 49.2483Z" fill="#191919"/>
<path d="M16.5485 56.6962C16.4407 56.6962 16.3329 56.6962 16.2251 56.6692C15.3626 56.5613 14.608 56.1025 14.1228 55.3739C13.5029 54.4025 13.5029 53.1341 14.1767 52.1897C14.6888 51.4611 15.4435 51.0293 16.3059 50.9483C17.1684 50.8674 18.0039 51.1912 18.5968 51.8119C18.8664 52.0817 18.8394 52.5135 18.5968 52.7564C18.3273 53.0262 17.8961 52.9992 17.6535 52.7564C17.3301 52.4325 16.8989 52.2706 16.4407 52.2976C15.9825 52.3246 15.5782 52.5675 15.3087 52.9722C14.9583 53.458 14.9583 54.1326 15.2818 54.6453C15.5513 55.0501 15.9555 55.293 16.4137 55.347C16.8719 55.4009 17.3301 55.239 17.6535 54.9152C17.923 54.6453 18.3543 54.6723 18.5968 54.9152C18.8664 55.185 18.8394 55.6168 18.5968 55.8597C18.0039 56.3994 17.2762 56.6962 16.5485 56.6962Z" fill="#191919"/>
<path d="M17.3842 65.2505C17.3573 65.2505 17.3573 65.2505 17.3303 65.2505C16.1714 65.2236 15.1203 64.495 14.716 63.4425C14.3926 62.633 14.4734 61.7155 14.8777 60.9599C15.3089 60.2043 16.0366 59.6916 16.8721 59.5297C17.2495 59.4757 17.5998 59.7186 17.6537 60.0694C17.7076 60.4472 17.4651 60.798 17.1147 60.852C16.6565 60.9329 16.2792 61.2028 16.0636 61.6075C15.848 62.0123 15.7941 62.4711 15.9827 62.9298C16.1983 63.4965 16.7643 63.8743 17.3573 63.8743C17.8424 63.8743 18.2736 63.6854 18.5701 63.3346C18.8666 62.9838 19.0013 62.525 18.9205 62.0663C18.8666 61.6885 19.1091 61.3377 19.4595 61.2837C19.8368 61.2297 20.1872 61.4726 20.2411 61.8234C20.4028 62.66 20.1602 63.5505 19.5943 64.1981C19.0552 64.8728 18.2467 65.2505 17.3842 65.2505Z" fill="#191919"/>
<path d="M22.5309 47.4942C22.45 47.4942 22.3422 47.4672 22.2614 47.4403C21.7762 47.2244 20.9138 47.3053 20.6443 47.3593C20.2669 47.4133 19.9166 47.1704 19.8627 46.8196C19.8088 46.4418 20.0513 46.091 20.4017 46.037C20.5365 46.01 21.8571 45.7941 22.8004 46.2259C23.1508 46.3878 23.2855 46.7656 23.1508 47.1164C23.043 47.3593 22.7735 47.4942 22.5309 47.4942Z" fill="#191919"/>
<path d="M27.7866 48.4117C27.6788 48.4117 27.571 48.3847 27.4901 48.3308C27.0858 48.1419 26.8433 47.9799 26.8433 47.9799C26.5198 47.791 26.439 47.3593 26.6276 47.0355C26.8163 46.7116 27.2475 46.6307 27.544 46.8196C27.544 46.8196 27.7327 46.9545 28.083 47.1164C28.4065 47.2783 28.5412 47.6831 28.3795 48.0339C28.2717 48.2768 28.0561 48.4117 27.7866 48.4117Z" fill="#191919"/>
<path d="M15.1463 52.2706C14.9576 52.2706 14.769 52.1897 14.6342 52.0547L13.664 50.9484C12.4511 49.5721 12.1008 47.6561 12.7476 45.9291C13.4214 44.0941 15.1194 42.8527 17.0868 42.7178L18.9196 42.6099C19.2969 42.5829 19.6203 42.8797 19.6203 43.2305C19.6473 43.6083 19.3508 43.9321 19.0004 43.9321L17.1677 44.0401C15.7662 44.121 14.5264 45.0385 14.0143 46.3608C13.5562 47.6022 13.7987 49.0054 14.6881 50.0039L15.6584 51.1103C15.901 51.3801 15.874 51.8119 15.6045 52.0547C15.4428 52.2167 15.308 52.2706 15.1463 52.2706Z" fill="#191919"/>
<path d="M30.0245 50.1118C29.9706 50.1118 29.9436 50.1118 29.8897 50.0848C29.5124 50.0039 29.2968 49.653 29.3777 49.2753L29.8628 46.9005C29.9975 46.1989 29.8628 45.5243 29.4585 44.9306C29.0542 44.3639 28.4343 43.9861 27.7336 43.9052C27.3563 43.8512 27.1137 43.5274 27.1406 43.1496C27.1676 42.7718 27.518 42.5289 27.8953 42.5559C28.9464 42.6908 29.9167 43.2575 30.5366 44.121C31.1565 44.9846 31.399 46.091 31.1834 47.1434L30.6983 49.5181C30.6174 49.8959 30.321 50.1118 30.0245 50.1118Z" fill="#191919"/>
<path d="M29.2697 60.2043C28.7845 60.2043 28.2994 60.1503 27.8143 60.0424C27.4639 59.9614 27.2213 59.5836 27.3022 59.2328C27.383 58.882 27.7604 58.6391 28.1107 58.7201C30.8329 59.3408 33.555 57.6407 34.2018 54.9152C34.8217 52.1897 33.1238 49.4641 30.4016 48.8165C30.0513 48.7355 29.8087 48.3577 29.8895 48.0069C29.9704 47.6561 30.3477 47.4133 30.6981 47.4942C34.1479 48.3038 36.3041 51.7579 35.5225 55.212C34.8217 58.1804 32.1805 60.2043 29.2697 60.2043Z" fill="#191919"/>
<path d="M19.1623 43.8782L6.03674 38.4541L12.613 23.6931L13.8797 24.1789L10.2951 35.8905L19.8361 40.2891L19.1623 43.8782ZM7.84251 37.7255L18.1381 41.9892L18.2998 41.0717L8.65107 36.6191L9.37877 34.2444L7.84251 37.7255Z" fill="#191919"/>
<path d="M27.491 43.8782L26.8172 40.2891L36.3581 35.8905L32.7735 24.1789L34.0403 23.6931L40.6165 38.4541L27.491 43.8782ZM28.3535 41.0717L28.5152 41.9892L38.8108 37.7255L37.2476 34.2174L37.9752 36.5921L28.3535 41.0717Z" fill="#191919"/>
<path d="M29.135 40.8019H17.384V14.653H29.135V40.8019ZM18.7316 39.4526H27.7874V16.0023H18.7316V39.4526Z" fill="#191919"/>
<path d="M21.4805 36.3762C21.1032 36.3762 20.8067 36.0794 20.8067 35.7016V15.8674C20.8067 15.4896 21.1032 15.1927 21.4805 15.1927C21.8578 15.1927 22.1543 15.4896 22.1543 15.8674V35.7016C22.1543 36.0794 21.8578 36.3762 21.4805 36.3762Z" fill="#191919"/>
<path d="M25.0116 24.0979C24.6343 24.0979 24.3378 23.8011 24.3378 23.4233V15.8674C24.3378 15.4896 24.6343 15.1927 25.0116 15.1927C25.389 15.1927 25.6854 15.4896 25.6854 15.8674V23.4233C25.6854 23.8011 25.389 24.0979 25.0116 24.0979Z" fill="#191919"/>
<path d="M27.8443 15.3277L23.9902 6.58442C23.8015 6.15266 23.3703 6.09869 23.2625 6.09869C23.1277 6.09869 22.7234 6.12567 22.5348 6.58442L18.6806 15.3277L17.4409 14.788L21.295 6.04472C21.6453 5.26214 22.4 4.74942 23.2625 4.74942C24.1249 4.74942 24.8796 5.23516 25.2299 6.04472L29.0841 14.788L27.8443 15.3277Z" fill="#191919"/>
<path d="M25.0116 40.3701C24.6343 40.3701 24.3378 40.0733 24.3378 39.6955V27.3092C24.3378 26.9314 24.6343 26.6346 25.0116 26.6346C25.389 26.6346 25.6854 26.9314 25.6854 27.3092V39.6955C25.6854 40.0733 25.389 40.3701 25.0116 40.3701Z" fill="#191919"/>
<path d="M21.4805 40.8019C21.1032 40.8019 20.8067 40.505 20.8067 40.1272V38.697C20.8067 38.3192 21.1032 38.0224 21.4805 38.0224C21.8578 38.0224 22.1543 38.3192 22.1543 38.697V40.1272C22.1543 40.505 21.8578 40.8019 21.4805 40.8019Z" fill="#191919"/>
<path d="M20.6457 9.14803H26.1978L23.26 5.505L20.6457 9.14803Z" fill="#191919"/>
<path d="M25.7386 44.9846H20.7794C20.1056 44.9846 19.4588 44.6607 19.0276 44.121C18.5963 43.5813 18.4616 42.8797 18.6502 42.2321L19.351 39.4796H27.1401L27.8408 42.2321C28.0025 42.9067 27.8678 43.5813 27.4635 44.121C27.0592 44.6607 26.4124 44.9846 25.7386 44.9846ZM20.4021 40.8018L19.9439 42.5559C19.89 42.8257 19.9439 43.0686 20.1056 43.2845C20.2673 43.5004 20.5099 43.6083 20.7794 43.6083H25.7386C26.0081 43.6083 26.2507 43.5004 26.4124 43.2845C26.5741 43.0686 26.628 42.7988 26.5741 42.5559L26.1159 40.8018H20.4021Z" fill="#191919"/>
</svg>
