<svg width="24" height="24" viewBox="0 0 24 24" fill="none" xmlns="http://www.w3.org/2000/svg">
<g clip-path="url(#clip0)">
<path d="M21.9295 20.243L20.2114 17.381C19.4194 16.06 19.0004 14.548 19.0004 13.007V10.5C19.0004 6.64102 15.8594 3.50002 12.0004 3.50002C8.14145 3.50002 5.00045 6.64102 5.00045 10.5V13.007C5.00045 14.548 4.58144 16.06 3.78944 17.381L2.07142 20.243C1.97842 20.397 1.97641 20.59 2.06444 20.746C2.15345 20.903 2.32042 21 2.50042 21H21.5004C21.6804 21 21.8474 20.9031 21.9364 20.746C22.0244 20.59 22.0225 20.397 21.9295 20.243ZM3.38345 20L4.64645 17.895C5.53244 16.419 6.00044 14.729 6.00044 13.007V10.5C6.00044 7.191 8.69144 4.5 12.0004 4.5C15.3094 4.5 18.0004 7.191 18.0004 10.5V13.007C18.0004 14.729 18.4684 16.419 19.3534 17.895L20.6174 20H3.38345Z" fill="#191919"/>
<path d="M12 0C10.897 0 10 0.897 10 2.00002V4.00003C10 4.27598 10.224 4.5 10.5 4.5C10.776 4.5 11 4.27598 11 3.99998V2.00002C11 1.44802 11.448 1.00003 12 1.00003C12.552 1.00003 13 1.44802 13 2.00002V4.00003C13 4.27598 13.224 4.5 13.5 4.5C13.776 4.5 14 4.27598 14 3.99998V2.00002C14 0.897 13.103 0 12 0Z" fill="#191919"/>
<path d="M14.164 20.247C14.023 20.009 13.718 19.931 13.479 20.068C13.24 20.208 13.16 20.515 13.3 20.753C13.43 20.974 13.501 21.239 13.501 21.5C13.501 22.327 12.828 23 12.001 23C11.174 23 10.501 22.327 10.501 21.5C10.501 21.239 10.572 20.974 10.702 20.753C10.841 20.514 10.761 20.208 10.523 20.068C10.282 19.931 9.97798 20.009 9.83801 20.247C9.617 20.625 9.5 21.058 9.5 21.5C9.50005 22.879 10.621 24 12 24C13.379 24 14.5 22.879 14.502 21.5C14.502 21.058 14.385 20.625 14.164 20.247Z" fill="#191919"/>
<g filter="url(#filter0_d)">
<circle cx="16.5" cy="5.5" r="2.5" fill="#FF5C5C"/>
</g>
</g>
<defs>
<filter id="filter0_d" x="10" y="-1" width="13" height="13" filterUnits="userSpaceOnUse" color-interpolation-filters="sRGB">
<feFlood flood-opacity="0" result="BackgroundImageFix"/>
<feColorMatrix in="SourceAlpha" type="matrix" values="0 0 0 0 0 0 0 0 0 0 0 0 0 0 0 0 0 0 127 0"/>
<feOffset/>
<feGaussianBlur stdDeviation="2"/>
<feColorMatrix type="matrix" values="0 0 0 0 1 0 0 0 0 0.3625 0 0 0 0 0.3625 0 0 0 0.6 0"/>
<feBlend mode="normal" in2="BackgroundImageFix" result="effect1_dropShadow"/>
<feBlend mode="normal" in="SourceGraphic" in2="effect1_dropShadow" result="shape"/>
</filter>
<clipPath id="clip0">
<rect width="24" height="24" fill="white"/>
</clipPath>
</defs>
</svg>
