<svg width="21" height="21" viewBox="0 0 21 21" fill="none" xmlns="http://www.w3.org/2000/svg">
<g opacity="1">
<g clip-path="url(#clip0)">
<path d="M5.61724 13.2167C5.81335 13.1035 5.88048 12.8525 5.76736 12.6564C5.65409 12.4604 5.40319 12.3931 5.20709 12.5062C5.01098 12.6195 4.94369 12.8706 5.05696 13.0665C5.17008 13.2626 5.42114 13.3299 5.61724 13.2167Z" fill="#191919"/>
<path d="M3.93685 16.0475L6.00237 19.6253C6.4481 20.3982 7.45074 20.6844 8.24365 20.226C9.02824 19.7726 9.29788 18.7701 8.84399 17.9849L7.61352 15.8533L8.67912 15.2381C8.87523 15.1247 8.94252 14.8739 8.82925 14.6778L8.29588 13.754C8.35949 13.7417 8.77766 13.6596 16.152 12.213C17.0636 12.1635 17.6098 11.1665 17.1493 10.3694L15.7862 8.00846L16.6573 6.68907C16.7429 6.5593 16.748 6.39251 16.6703 6.25793L15.85 4.83712C15.7723 4.70254 15.6247 4.62371 15.4701 4.63284L13.8921 4.72753L12.3789 2.10638C12.1597 1.72666 11.767 1.49675 11.3286 1.4913C11.3233 1.49114 11.3182 1.49114 11.3129 1.49114C10.8893 1.49114 10.5048 1.70199 10.277 2.05847L4.91898 8.88405L1.4357 10.8951C0.0656825 11.6858 -0.408881 13.4434 0.384835 14.8171C1.10998 16.0732 2.63877 16.5673 3.93685 16.0475ZM8.13374 18.3952C8.36029 18.7871 8.22619 19.2886 7.83318 19.5156C7.43888 19.7436 6.93676 19.6035 6.71278 19.2153L4.662 15.6628L6.0828 14.8425C8.45626 18.954 8.09561 18.3293 8.13374 18.3952ZM7.20336 15.1428L6.79321 14.4324L7.50361 14.0222L7.91377 14.7326L7.20336 15.1428ZM15.2663 5.46677L15.8331 6.44859L15.3277 7.2141L14.3507 5.52173L15.2663 5.46677ZM10.963 2.5082C11.0731 2.32812 11.2477 2.30953 11.3185 2.31145C11.3886 2.31226 11.563 2.33405 11.6683 2.51637L16.4389 10.7796C16.5943 11.0486 16.4054 11.3868 16.0938 11.3945C16.0379 11.3958 16.0121 11.4059 15.8689 11.4326L10.8225 2.69197C10.9284 2.55579 10.942 2.54265 10.963 2.5082ZM10.2767 3.38731L15.018 11.5996L7.86234 13.0031L5.68659 9.2346L10.2767 3.38731ZM1.09524 14.4069C0.915155 14.0953 0.819986 13.7415 0.819986 13.3836C0.819986 12.652 1.21316 11.9708 1.84586 11.6055L5.04267 9.7598L7.09345 13.3118L3.89664 15.1577C2.91723 15.7229 1.66065 15.3861 1.09524 14.4069Z" fill="#191919"/>
<path d="M4.34638 13.4767C4.2331 13.2806 3.9822 13.2133 3.7861 13.3266L3.07569 13.7367C2.87991 13.8498 2.62853 13.7824 2.51541 13.5866C2.40214 13.3905 2.15124 13.3232 1.95513 13.4365C1.75903 13.5497 1.69174 13.8006 1.80501 13.9967C2.14259 14.5815 2.89561 14.7877 3.48585 14.4471L4.19625 14.037C4.39236 13.9237 4.45965 13.6729 4.34638 13.4767Z" fill="#191919"/>
<path d="M20.3908 2.36849L18.1053 3.6403C17.9075 3.75053 17.8362 4.00031 17.9464 4.19818C18.0563 4.39588 18.3059 4.4675 18.5043 4.35711L20.7896 3.08531C20.9876 2.97508 21.0588 2.7253 20.9485 2.52743C20.8385 2.3294 20.5887 2.25827 20.3908 2.36849Z" fill="#191919"/>
<path d="M20.1501 6.61649L18.5653 6.19191C18.3465 6.13327 18.1215 6.26305 18.0629 6.48191C18.0043 6.70076 18.1342 6.92555 18.3531 6.98419L19.9379 7.40877C20.1581 7.46789 20.3819 7.33603 20.4402 7.11877C20.4989 6.89991 20.3689 6.67497 20.1501 6.61649Z" fill="#191919"/>
<path d="M16.1686 0.878314L15.7436 2.46318C15.6849 2.68204 15.8147 2.90682 16.0336 2.96562C16.2523 3.0241 16.4772 2.89465 16.536 2.67563L16.9609 1.09076C17.0195 0.871905 16.8898 0.64696 16.6709 0.588321C16.4522 0.529682 16.2273 0.659457 16.1686 0.878314Z" fill="#191919"/>
</g>
</g>
<defs>
<clipPath id="clip0">
<rect width="21" height="21" fill="white"/>
</clipPath>
</defs>
</svg>
