<svg width="22" height="22" viewBox="0 0 22 22" fill="none" xmlns="http://www.w3.org/2000/svg">
<g clip-path="url(#clip0)">
<path d="M0.716603 10.2826L14.5863 10.2826C14.9823 10.2826 15.3037 10.604 15.3037 11C15.3037 11.396 14.9823 11.7174 14.5863 11.7174L0.716603 11.7174C0.320601 11.7174 -0.000789614 11.396 -0.00078958 11C-0.000789545 10.604 0.320602 10.2826 0.716603 10.2826Z" fill="#191919"/>
<path d="M10.7605 6.45655C10.9442 6.45655 11.1278 6.52626 11.2675 6.6669L15.0935 10.4929C15.3738 10.7733 15.3738 11.2277 15.0935 11.5079L11.2675 15.3339C10.9873 15.6142 10.533 15.6142 10.2526 15.3339C9.97232 15.0537 9.97232 14.5994 10.2526 14.3192L13.5717 11L10.2526 7.68082C9.97233 7.40058 9.97233 6.94626 10.2526 6.66603C10.3932 6.52626 10.5769 6.45655 10.7605 6.45655Z" fill="#191919"/>
<path d="M11.4782 0.478211C17.2795 0.478212 22 5.1987 22 11C22 16.8013 17.2795 21.5218 11.4782 21.5218C7.12516 21.5218 3.28179 18.9029 1.68535 14.849C1.53998 14.4808 1.72178 14.0647 2.08994 13.9184C2.45827 13.7748 2.87441 13.9538 3.02065 14.3239C4.39904 17.8249 7.71908 20.087 11.4782 20.087C16.4886 20.087 20.5652 16.0102 20.5652 11C20.5652 5.98983 16.4886 1.913 11.4782 1.913C7.71908 1.913 4.39904 4.17516 3.02065 7.67507C2.87528 8.04532 2.45914 8.22415 2.08994 8.0807C1.72178 7.93533 1.53998 7.51831 1.68535 7.14998C3.2818 3.09715 7.12516 0.478211 11.4782 0.478211Z" fill="#191919"/>
</g>
<defs>
<clipPath id="clip0">
<rect x="22" y="22" width="22" height="22" transform="rotate(-180 22 22)" fill="white"/>
</clipPath>
</defs>
</svg>
