<svg width="30" height="30" viewBox="0 0 30 30" fill="none" xmlns="http://www.w3.org/2000/svg">
<path d="M19.8956 17.0277C19.1415 16.2737 18.244 15.7155 17.2648 15.3776C18.3136 14.6552 19.0026 13.4463 19.0026 12.0793C19.0026 9.8724 17.2071 8.07692 15.0002 8.07692C12.7933 8.07692 10.9978 9.8724 10.9978 12.0793C10.9978 13.4463 11.6869 14.6552 12.7357 15.3776C11.7564 15.7155 10.8589 16.2737 10.1049 17.0277C8.79728 18.3353 8.07715 20.0739 8.07715 21.9231H9.15888C9.15888 18.7021 11.7793 16.0817 15.0002 16.0817C18.2212 16.0817 20.8416 18.7021 20.8416 21.9231H21.9233C21.9233 20.0739 21.2032 18.3353 19.8956 17.0277ZM15.0002 15C13.3898 15 12.0796 13.6898 12.0796 12.0793C12.0796 10.4688 13.3898 9.15865 15.0002 9.15865C16.6107 9.15865 17.9209 10.4688 17.9209 12.0793C17.9209 13.6898 16.6107 15 15.0002 15Z" fill="#191919"/>
<circle cx="15" cy="15" r="14.4" stroke="#191919" stroke-width="1.2"/>
</svg>
